G04 #@! TF.GenerationSoftware,KiCad,Pcbnew,(5.1.0)-1*
G04 #@! TF.CreationDate,2019-04-13T18:44:09-04:00*
G04 #@! TF.ProjectId,SCH1110 - IO Module PCB,53434831-3131-4302-902d-20494f204d6f,-*
G04 #@! TF.SameCoordinates,Original*
G04 #@! TF.FileFunction,Paste,Top*
G04 #@! TF.FilePolarity,Positive*
%FSLAX46Y46*%
G04 Gerber Fmt 4.6, Leading zero omitted, Abs format (unit mm)*
G04 Created by KiCad (PCBNEW (5.1.0)-1) date 2019-04-13 18:44:09*
%MOMM*%
%LPD*%
G04 APERTURE LIST*
%ADD10O,3.810000X1.905000*%
%ADD11R,1.200000X1.200000*%
%ADD12R,0.800000X0.600000*%
%ADD13O,1.905000X3.810000*%
%ADD14R,0.600000X0.800000*%
%ADD15R,1.300000X1.900000*%
%ADD16R,2.000000X1.900000*%
%ADD17R,0.600000X2.000000*%
%ADD18R,0.600000X1.050000*%
%ADD19R,2.150000X0.950000*%
%ADD20R,2.150000X3.250000*%
G04 APERTURE END LIST*
D10*
X105283000Y-86868000D03*
X105283000Y-83058000D03*
D11*
X131191000Y-89315000D03*
X131191000Y-87215000D03*
D12*
X117094000Y-68831000D03*
X117094000Y-70231000D03*
D11*
X114554000Y-69401000D03*
X114554000Y-71501000D03*
D12*
X110109000Y-75181000D03*
X110109000Y-76581000D03*
D11*
X118491000Y-87249000D03*
X118491000Y-85149000D03*
D12*
X118491000Y-82742000D03*
X118491000Y-81342000D03*
X116459000Y-75119000D03*
X116459000Y-76519000D03*
X123063000Y-82045000D03*
X123063000Y-80645000D03*
D13*
X130429000Y-56134000D03*
X126619000Y-56134000D03*
X145415000Y-56134000D03*
X149225000Y-56134000D03*
X136271000Y-56134000D03*
X140081000Y-56134000D03*
X115570000Y-56261000D03*
X111760000Y-56261000D03*
X107950000Y-56261000D03*
X104140000Y-56261000D03*
D14*
X120901000Y-56769000D03*
X122301000Y-56769000D03*
X127889000Y-77343000D03*
X126489000Y-77343000D03*
D12*
X131318000Y-80518000D03*
X131318000Y-81918000D03*
D14*
X117729000Y-73660000D03*
X116329000Y-73660000D03*
X117732000Y-72009000D03*
X116332000Y-72009000D03*
D12*
X111760000Y-70358000D03*
X111760000Y-71758000D03*
X110109000Y-73725000D03*
X110109000Y-72325000D03*
X123063000Y-83374000D03*
X123063000Y-84774000D03*
X123063000Y-86422000D03*
X123063000Y-87822000D03*
D14*
X127886000Y-89281000D03*
X129286000Y-89281000D03*
X125157000Y-89281000D03*
X126557000Y-89281000D03*
D15*
X105022000Y-75966000D03*
D16*
X106172000Y-70866000D03*
D15*
X107322000Y-75966000D03*
D17*
X125349000Y-86143000D03*
X126619000Y-86143000D03*
X129159000Y-86143000D03*
X129159000Y-81243000D03*
X127889000Y-81243000D03*
X126619000Y-81243000D03*
X125349000Y-81243000D03*
X127889000Y-86143000D03*
D18*
X114568000Y-76346000D03*
X112668000Y-76346000D03*
X112668000Y-73646000D03*
X113618000Y-73646000D03*
X114568000Y-73646000D03*
D19*
X115676000Y-82303000D03*
X115676000Y-84603000D03*
X115676000Y-86903000D03*
D20*
X109876000Y-84603000D03*
D14*
X127889000Y-79121000D03*
X126489000Y-79121000D03*
M02*
