G04 #@! TF.GenerationSoftware,KiCad,Pcbnew,(5.1.0)-1*
G04 #@! TF.CreationDate,2019-04-13T18:44:09-04:00*
G04 #@! TF.ProjectId,SCH1110 - IO Module PCB,53434831-3131-4302-902d-20494f204d6f,-*
G04 #@! TF.SameCoordinates,Original*
G04 #@! TF.FileFunction,Legend,Top*
G04 #@! TF.FilePolarity,Positive*
%FSLAX46Y46*%
G04 Gerber Fmt 4.6, Leading zero omitted, Abs format (unit mm)*
G04 Created by KiCad (PCBNEW (5.1.0)-1) date 2019-04-13 18:44:09*
%MOMM*%
%LPD*%
G04 APERTURE LIST*
%ADD10C,0.150000*%
%ADD11C,0.180000*%
%ADD12C,0.120000*%
%ADD13C,0.254000*%
%ADD14C,0.100000*%
G04 APERTURE END LIST*
D10*
X102544619Y-80168714D02*
X102497000Y-80121095D01*
X102449380Y-80025857D01*
X102449380Y-79787761D01*
X102497000Y-79692523D01*
X102544619Y-79644904D01*
X102639857Y-79597285D01*
X102735095Y-79597285D01*
X102877952Y-79644904D01*
X103449380Y-80216333D01*
X103449380Y-79597285D01*
X103449380Y-88868285D02*
X103449380Y-89439714D01*
X103449380Y-89154000D02*
X102449380Y-89154000D01*
X102592238Y-89249238D01*
X102687476Y-89344476D01*
X102735095Y-89439714D01*
X105219476Y-52617714D02*
X105219476Y-53284380D01*
X104981380Y-52236761D02*
X104743285Y-52951047D01*
X105362333Y-52951047D01*
X108759666Y-52284380D02*
X109378714Y-52284380D01*
X109045380Y-52665333D01*
X109188238Y-52665333D01*
X109283476Y-52712952D01*
X109331095Y-52760571D01*
X109378714Y-52855809D01*
X109378714Y-53093904D01*
X109331095Y-53189142D01*
X109283476Y-53236761D01*
X109188238Y-53284380D01*
X108902523Y-53284380D01*
X108807285Y-53236761D01*
X108759666Y-53189142D01*
X112744285Y-52379619D02*
X112791904Y-52332000D01*
X112887142Y-52284380D01*
X113125238Y-52284380D01*
X113220476Y-52332000D01*
X113268095Y-52379619D01*
X113315714Y-52474857D01*
X113315714Y-52570095D01*
X113268095Y-52712952D01*
X112696666Y-53284380D01*
X113315714Y-53284380D01*
X117633714Y-53284380D02*
X117062285Y-53284380D01*
X117348000Y-53284380D02*
X117348000Y-52284380D01*
X117252761Y-52427238D01*
X117157523Y-52522476D01*
X117062285Y-52570095D01*
X127349285Y-52252619D02*
X127396904Y-52205000D01*
X127492142Y-52157380D01*
X127730238Y-52157380D01*
X127825476Y-52205000D01*
X127873095Y-52252619D01*
X127920714Y-52347857D01*
X127920714Y-52443095D01*
X127873095Y-52585952D01*
X127301666Y-53157380D01*
X127920714Y-53157380D01*
X132238714Y-53157380D02*
X131667285Y-53157380D01*
X131953000Y-53157380D02*
X131953000Y-52157380D01*
X131857761Y-52300238D01*
X131762523Y-52395476D01*
X131667285Y-52443095D01*
X140938285Y-52252619D02*
X140985904Y-52205000D01*
X141081142Y-52157380D01*
X141319238Y-52157380D01*
X141414476Y-52205000D01*
X141462095Y-52252619D01*
X141509714Y-52347857D01*
X141509714Y-52443095D01*
X141462095Y-52585952D01*
X140890666Y-53157380D01*
X141509714Y-53157380D01*
X137572714Y-53157380D02*
X137001285Y-53157380D01*
X137287000Y-53157380D02*
X137287000Y-52157380D01*
X137191761Y-52300238D01*
X137096523Y-52395476D01*
X137001285Y-52443095D01*
X146272285Y-52252619D02*
X146319904Y-52205000D01*
X146415142Y-52157380D01*
X146653238Y-52157380D01*
X146748476Y-52205000D01*
X146796095Y-52252619D01*
X146843714Y-52347857D01*
X146843714Y-52443095D01*
X146796095Y-52585952D01*
X146224666Y-53157380D01*
X146843714Y-53157380D01*
X151161714Y-53157380D02*
X150590285Y-53157380D01*
X150876000Y-53157380D02*
X150876000Y-52157380D01*
X150780761Y-52300238D01*
X150685523Y-52395476D01*
X150590285Y-52443095D01*
D11*
X102743000Y-81153000D02*
X107823000Y-81153000D01*
X102743000Y-88773000D02*
X102743000Y-81153000D01*
X107823000Y-88773000D02*
X102743000Y-88773000D01*
X107823000Y-81153000D02*
X107823000Y-88773000D01*
D12*
X130391000Y-88565000D02*
X130391000Y-87965000D01*
X131991000Y-88585000D02*
X131991000Y-87985000D01*
X134879000Y-90708241D02*
X135509000Y-90708241D01*
X135194000Y-91023241D02*
X135194000Y-90393241D01*
X136631000Y-84282000D02*
X137435000Y-84282000D01*
X136400000Y-84322000D02*
X137666000Y-84322000D01*
X136231000Y-84362000D02*
X137835000Y-84362000D01*
X136093000Y-84402000D02*
X137973000Y-84402000D01*
X135974000Y-84442000D02*
X138092000Y-84442000D01*
X135868000Y-84482000D02*
X138198000Y-84482000D01*
X135771000Y-84522000D02*
X138295000Y-84522000D01*
X135683000Y-84562000D02*
X138383000Y-84562000D01*
X135601000Y-84602000D02*
X138465000Y-84602000D01*
X135524000Y-84642000D02*
X138542000Y-84642000D01*
X135452000Y-84682000D02*
X138614000Y-84682000D01*
X135383000Y-84722000D02*
X138683000Y-84722000D01*
X135319000Y-84762000D02*
X138747000Y-84762000D01*
X135257000Y-84802000D02*
X138809000Y-84802000D01*
X135199000Y-84842000D02*
X138867000Y-84842000D01*
X135143000Y-84882000D02*
X138923000Y-84882000D01*
X135089000Y-84922000D02*
X138977000Y-84922000D01*
X135038000Y-84962000D02*
X139028000Y-84962000D01*
X134989000Y-85002000D02*
X139077000Y-85002000D01*
X134941000Y-85042000D02*
X139125000Y-85042000D01*
X134896000Y-85082000D02*
X139170000Y-85082000D01*
X134851000Y-85122000D02*
X139215000Y-85122000D01*
X134809000Y-85162000D02*
X139257000Y-85162000D01*
X134768000Y-85202000D02*
X139298000Y-85202000D01*
X138073000Y-85242000D02*
X139338000Y-85242000D01*
X134728000Y-85242000D02*
X135993000Y-85242000D01*
X138073000Y-85282000D02*
X139376000Y-85282000D01*
X134690000Y-85282000D02*
X135993000Y-85282000D01*
X138073000Y-85322000D02*
X139413000Y-85322000D01*
X134653000Y-85322000D02*
X135993000Y-85322000D01*
X138073000Y-85362000D02*
X139449000Y-85362000D01*
X134617000Y-85362000D02*
X135993000Y-85362000D01*
X138073000Y-85402000D02*
X139483000Y-85402000D01*
X134583000Y-85402000D02*
X135993000Y-85402000D01*
X138073000Y-85442000D02*
X139517000Y-85442000D01*
X134549000Y-85442000D02*
X135993000Y-85442000D01*
X138073000Y-85482000D02*
X139549000Y-85482000D01*
X134517000Y-85482000D02*
X135993000Y-85482000D01*
X138073000Y-85522000D02*
X139581000Y-85522000D01*
X134485000Y-85522000D02*
X135993000Y-85522000D01*
X138073000Y-85562000D02*
X139611000Y-85562000D01*
X134455000Y-85562000D02*
X135993000Y-85562000D01*
X138073000Y-85602000D02*
X139640000Y-85602000D01*
X134426000Y-85602000D02*
X135993000Y-85602000D01*
X138073000Y-85642000D02*
X139669000Y-85642000D01*
X134397000Y-85642000D02*
X135993000Y-85642000D01*
X138073000Y-85682000D02*
X139697000Y-85682000D01*
X134369000Y-85682000D02*
X135993000Y-85682000D01*
X138073000Y-85722000D02*
X139723000Y-85722000D01*
X134343000Y-85722000D02*
X135993000Y-85722000D01*
X138073000Y-85762000D02*
X139749000Y-85762000D01*
X134317000Y-85762000D02*
X135993000Y-85762000D01*
X138073000Y-85802000D02*
X139775000Y-85802000D01*
X134291000Y-85802000D02*
X135993000Y-85802000D01*
X138073000Y-85842000D02*
X139799000Y-85842000D01*
X134267000Y-85842000D02*
X135993000Y-85842000D01*
X138073000Y-85882000D02*
X139823000Y-85882000D01*
X134243000Y-85882000D02*
X135993000Y-85882000D01*
X138073000Y-85922000D02*
X139845000Y-85922000D01*
X134221000Y-85922000D02*
X135993000Y-85922000D01*
X138073000Y-85962000D02*
X139867000Y-85962000D01*
X134199000Y-85962000D02*
X135993000Y-85962000D01*
X138073000Y-86002000D02*
X139889000Y-86002000D01*
X134177000Y-86002000D02*
X135993000Y-86002000D01*
X138073000Y-86042000D02*
X139909000Y-86042000D01*
X134157000Y-86042000D02*
X135993000Y-86042000D01*
X138073000Y-86082000D02*
X139929000Y-86082000D01*
X134137000Y-86082000D02*
X135993000Y-86082000D01*
X138073000Y-86122000D02*
X139949000Y-86122000D01*
X134117000Y-86122000D02*
X135993000Y-86122000D01*
X138073000Y-86162000D02*
X139967000Y-86162000D01*
X134099000Y-86162000D02*
X135993000Y-86162000D01*
X138073000Y-86202000D02*
X139985000Y-86202000D01*
X134081000Y-86202000D02*
X135993000Y-86202000D01*
X138073000Y-86242000D02*
X140003000Y-86242000D01*
X134063000Y-86242000D02*
X135993000Y-86242000D01*
X138073000Y-86282000D02*
X140019000Y-86282000D01*
X134047000Y-86282000D02*
X135993000Y-86282000D01*
X138073000Y-86322000D02*
X140035000Y-86322000D01*
X134031000Y-86322000D02*
X135993000Y-86322000D01*
X138073000Y-86362000D02*
X140051000Y-86362000D01*
X134015000Y-86362000D02*
X135993000Y-86362000D01*
X138073000Y-86402000D02*
X140066000Y-86402000D01*
X134000000Y-86402000D02*
X135993000Y-86402000D01*
X138073000Y-86442000D02*
X140080000Y-86442000D01*
X133986000Y-86442000D02*
X135993000Y-86442000D01*
X138073000Y-86482000D02*
X140094000Y-86482000D01*
X133972000Y-86482000D02*
X135993000Y-86482000D01*
X138073000Y-86522000D02*
X140107000Y-86522000D01*
X133959000Y-86522000D02*
X135993000Y-86522000D01*
X138073000Y-86562000D02*
X140119000Y-86562000D01*
X133947000Y-86562000D02*
X135993000Y-86562000D01*
X138073000Y-86602000D02*
X140131000Y-86602000D01*
X133935000Y-86602000D02*
X135993000Y-86602000D01*
X138073000Y-86642000D02*
X140143000Y-86642000D01*
X133923000Y-86642000D02*
X135993000Y-86642000D01*
X138073000Y-86682000D02*
X140154000Y-86682000D01*
X133912000Y-86682000D02*
X135993000Y-86682000D01*
X138073000Y-86722000D02*
X140164000Y-86722000D01*
X133902000Y-86722000D02*
X135993000Y-86722000D01*
X138073000Y-86762000D02*
X140174000Y-86762000D01*
X133892000Y-86762000D02*
X135993000Y-86762000D01*
X138073000Y-86802000D02*
X140183000Y-86802000D01*
X133883000Y-86802000D02*
X135993000Y-86802000D01*
X138073000Y-86843000D02*
X140192000Y-86843000D01*
X133874000Y-86843000D02*
X135993000Y-86843000D01*
X138073000Y-86883000D02*
X140200000Y-86883000D01*
X133866000Y-86883000D02*
X135993000Y-86883000D01*
X138073000Y-86923000D02*
X140208000Y-86923000D01*
X133858000Y-86923000D02*
X135993000Y-86923000D01*
X138073000Y-86963000D02*
X140215000Y-86963000D01*
X133851000Y-86963000D02*
X135993000Y-86963000D01*
X138073000Y-87003000D02*
X140222000Y-87003000D01*
X133844000Y-87003000D02*
X135993000Y-87003000D01*
X138073000Y-87043000D02*
X140228000Y-87043000D01*
X133838000Y-87043000D02*
X135993000Y-87043000D01*
X138073000Y-87083000D02*
X140234000Y-87083000D01*
X133832000Y-87083000D02*
X135993000Y-87083000D01*
X138073000Y-87123000D02*
X140239000Y-87123000D01*
X133827000Y-87123000D02*
X135993000Y-87123000D01*
X138073000Y-87163000D02*
X140244000Y-87163000D01*
X133822000Y-87163000D02*
X135993000Y-87163000D01*
X138073000Y-87203000D02*
X140248000Y-87203000D01*
X133818000Y-87203000D02*
X135993000Y-87203000D01*
X138073000Y-87243000D02*
X140251000Y-87243000D01*
X133815000Y-87243000D02*
X135993000Y-87243000D01*
X138073000Y-87283000D02*
X140255000Y-87283000D01*
X133811000Y-87283000D02*
X135993000Y-87283000D01*
X133809000Y-87323000D02*
X140257000Y-87323000D01*
X133806000Y-87363000D02*
X140260000Y-87363000D01*
X133805000Y-87403000D02*
X140261000Y-87403000D01*
X133803000Y-87443000D02*
X140263000Y-87443000D01*
X133803000Y-87483000D02*
X140263000Y-87483000D01*
X133803000Y-87523000D02*
X140263000Y-87523000D01*
X140303000Y-87523000D02*
G75*
G03X140303000Y-87523000I-3270000J0D01*
G01*
X125190000Y-62885000D02*
G75*
G03X125190000Y-62885000I-3270000J0D01*
G01*
X125150000Y-62885000D02*
X118690000Y-62885000D01*
X125150000Y-62925000D02*
X118690000Y-62925000D01*
X125150000Y-62965000D02*
X118690000Y-62965000D01*
X125148000Y-63005000D02*
X118692000Y-63005000D01*
X125147000Y-63045000D02*
X118693000Y-63045000D01*
X125144000Y-63085000D02*
X118696000Y-63085000D01*
X125142000Y-63125000D02*
X122960000Y-63125000D01*
X120880000Y-63125000D02*
X118698000Y-63125000D01*
X125138000Y-63165000D02*
X122960000Y-63165000D01*
X120880000Y-63165000D02*
X118702000Y-63165000D01*
X125135000Y-63205000D02*
X122960000Y-63205000D01*
X120880000Y-63205000D02*
X118705000Y-63205000D01*
X125131000Y-63245000D02*
X122960000Y-63245000D01*
X120880000Y-63245000D02*
X118709000Y-63245000D01*
X125126000Y-63285000D02*
X122960000Y-63285000D01*
X120880000Y-63285000D02*
X118714000Y-63285000D01*
X125121000Y-63325000D02*
X122960000Y-63325000D01*
X120880000Y-63325000D02*
X118719000Y-63325000D01*
X125115000Y-63365000D02*
X122960000Y-63365000D01*
X120880000Y-63365000D02*
X118725000Y-63365000D01*
X125109000Y-63405000D02*
X122960000Y-63405000D01*
X120880000Y-63405000D02*
X118731000Y-63405000D01*
X125102000Y-63445000D02*
X122960000Y-63445000D01*
X120880000Y-63445000D02*
X118738000Y-63445000D01*
X125095000Y-63485000D02*
X122960000Y-63485000D01*
X120880000Y-63485000D02*
X118745000Y-63485000D01*
X125087000Y-63525000D02*
X122960000Y-63525000D01*
X120880000Y-63525000D02*
X118753000Y-63525000D01*
X125079000Y-63565000D02*
X122960000Y-63565000D01*
X120880000Y-63565000D02*
X118761000Y-63565000D01*
X125070000Y-63606000D02*
X122960000Y-63606000D01*
X120880000Y-63606000D02*
X118770000Y-63606000D01*
X125061000Y-63646000D02*
X122960000Y-63646000D01*
X120880000Y-63646000D02*
X118779000Y-63646000D01*
X125051000Y-63686000D02*
X122960000Y-63686000D01*
X120880000Y-63686000D02*
X118789000Y-63686000D01*
X125041000Y-63726000D02*
X122960000Y-63726000D01*
X120880000Y-63726000D02*
X118799000Y-63726000D01*
X125030000Y-63766000D02*
X122960000Y-63766000D01*
X120880000Y-63766000D02*
X118810000Y-63766000D01*
X125018000Y-63806000D02*
X122960000Y-63806000D01*
X120880000Y-63806000D02*
X118822000Y-63806000D01*
X125006000Y-63846000D02*
X122960000Y-63846000D01*
X120880000Y-63846000D02*
X118834000Y-63846000D01*
X124994000Y-63886000D02*
X122960000Y-63886000D01*
X120880000Y-63886000D02*
X118846000Y-63886000D01*
X124981000Y-63926000D02*
X122960000Y-63926000D01*
X120880000Y-63926000D02*
X118859000Y-63926000D01*
X124967000Y-63966000D02*
X122960000Y-63966000D01*
X120880000Y-63966000D02*
X118873000Y-63966000D01*
X124953000Y-64006000D02*
X122960000Y-64006000D01*
X120880000Y-64006000D02*
X118887000Y-64006000D01*
X124938000Y-64046000D02*
X122960000Y-64046000D01*
X120880000Y-64046000D02*
X118902000Y-64046000D01*
X124922000Y-64086000D02*
X122960000Y-64086000D01*
X120880000Y-64086000D02*
X118918000Y-64086000D01*
X124906000Y-64126000D02*
X122960000Y-64126000D01*
X120880000Y-64126000D02*
X118934000Y-64126000D01*
X124890000Y-64166000D02*
X122960000Y-64166000D01*
X120880000Y-64166000D02*
X118950000Y-64166000D01*
X124872000Y-64206000D02*
X122960000Y-64206000D01*
X120880000Y-64206000D02*
X118968000Y-64206000D01*
X124854000Y-64246000D02*
X122960000Y-64246000D01*
X120880000Y-64246000D02*
X118986000Y-64246000D01*
X124836000Y-64286000D02*
X122960000Y-64286000D01*
X120880000Y-64286000D02*
X119004000Y-64286000D01*
X124816000Y-64326000D02*
X122960000Y-64326000D01*
X120880000Y-64326000D02*
X119024000Y-64326000D01*
X124796000Y-64366000D02*
X122960000Y-64366000D01*
X120880000Y-64366000D02*
X119044000Y-64366000D01*
X124776000Y-64406000D02*
X122960000Y-64406000D01*
X120880000Y-64406000D02*
X119064000Y-64406000D01*
X124754000Y-64446000D02*
X122960000Y-64446000D01*
X120880000Y-64446000D02*
X119086000Y-64446000D01*
X124732000Y-64486000D02*
X122960000Y-64486000D01*
X120880000Y-64486000D02*
X119108000Y-64486000D01*
X124710000Y-64526000D02*
X122960000Y-64526000D01*
X120880000Y-64526000D02*
X119130000Y-64526000D01*
X124686000Y-64566000D02*
X122960000Y-64566000D01*
X120880000Y-64566000D02*
X119154000Y-64566000D01*
X124662000Y-64606000D02*
X122960000Y-64606000D01*
X120880000Y-64606000D02*
X119178000Y-64606000D01*
X124636000Y-64646000D02*
X122960000Y-64646000D01*
X120880000Y-64646000D02*
X119204000Y-64646000D01*
X124610000Y-64686000D02*
X122960000Y-64686000D01*
X120880000Y-64686000D02*
X119230000Y-64686000D01*
X124584000Y-64726000D02*
X122960000Y-64726000D01*
X120880000Y-64726000D02*
X119256000Y-64726000D01*
X124556000Y-64766000D02*
X122960000Y-64766000D01*
X120880000Y-64766000D02*
X119284000Y-64766000D01*
X124527000Y-64806000D02*
X122960000Y-64806000D01*
X120880000Y-64806000D02*
X119313000Y-64806000D01*
X124498000Y-64846000D02*
X122960000Y-64846000D01*
X120880000Y-64846000D02*
X119342000Y-64846000D01*
X124468000Y-64886000D02*
X122960000Y-64886000D01*
X120880000Y-64886000D02*
X119372000Y-64886000D01*
X124436000Y-64926000D02*
X122960000Y-64926000D01*
X120880000Y-64926000D02*
X119404000Y-64926000D01*
X124404000Y-64966000D02*
X122960000Y-64966000D01*
X120880000Y-64966000D02*
X119436000Y-64966000D01*
X124370000Y-65006000D02*
X122960000Y-65006000D01*
X120880000Y-65006000D02*
X119470000Y-65006000D01*
X124336000Y-65046000D02*
X122960000Y-65046000D01*
X120880000Y-65046000D02*
X119504000Y-65046000D01*
X124300000Y-65086000D02*
X122960000Y-65086000D01*
X120880000Y-65086000D02*
X119540000Y-65086000D01*
X124263000Y-65126000D02*
X122960000Y-65126000D01*
X120880000Y-65126000D02*
X119577000Y-65126000D01*
X124225000Y-65166000D02*
X122960000Y-65166000D01*
X120880000Y-65166000D02*
X119615000Y-65166000D01*
X124185000Y-65206000D02*
X119655000Y-65206000D01*
X124144000Y-65246000D02*
X119696000Y-65246000D01*
X124102000Y-65286000D02*
X119738000Y-65286000D01*
X124057000Y-65326000D02*
X119783000Y-65326000D01*
X124012000Y-65366000D02*
X119828000Y-65366000D01*
X123964000Y-65406000D02*
X119876000Y-65406000D01*
X123915000Y-65446000D02*
X119925000Y-65446000D01*
X123864000Y-65486000D02*
X119976000Y-65486000D01*
X123810000Y-65526000D02*
X120030000Y-65526000D01*
X123754000Y-65566000D02*
X120086000Y-65566000D01*
X123696000Y-65606000D02*
X120144000Y-65606000D01*
X123634000Y-65646000D02*
X120206000Y-65646000D01*
X123570000Y-65686000D02*
X120270000Y-65686000D01*
X123501000Y-65726000D02*
X120339000Y-65726000D01*
X123429000Y-65766000D02*
X120411000Y-65766000D01*
X123352000Y-65806000D02*
X120488000Y-65806000D01*
X123270000Y-65846000D02*
X120570000Y-65846000D01*
X123182000Y-65886000D02*
X120658000Y-65886000D01*
X123085000Y-65926000D02*
X120755000Y-65926000D01*
X122979000Y-65966000D02*
X120861000Y-65966000D01*
X122860000Y-66006000D02*
X120980000Y-66006000D01*
X122722000Y-66046000D02*
X121118000Y-66046000D01*
X122553000Y-66086000D02*
X121287000Y-66086000D01*
X122322000Y-66126000D02*
X121518000Y-66126000D01*
X123759000Y-59384759D02*
X123759000Y-60014759D01*
X124074000Y-59699759D02*
X123444000Y-59699759D01*
X117394000Y-69831000D02*
X117394000Y-69231000D01*
X116794000Y-69831000D02*
X116794000Y-69231000D01*
X115354000Y-70151000D02*
X115354000Y-70751000D01*
X113754000Y-70131000D02*
X113754000Y-70731000D01*
X110409000Y-75581000D02*
X110409000Y-76181000D01*
X109809000Y-75581000D02*
X109809000Y-76181000D01*
X117691000Y-85879000D02*
X117691000Y-86479000D01*
X119291000Y-85899000D02*
X119291000Y-86499000D01*
X118191000Y-82342000D02*
X118191000Y-81742000D01*
X118791000Y-82342000D02*
X118791000Y-81742000D01*
X116759000Y-75519000D02*
X116759000Y-76119000D01*
X116159000Y-75519000D02*
X116159000Y-76119000D01*
X122763000Y-81045000D02*
X122763000Y-81645000D01*
X123363000Y-81045000D02*
X123363000Y-81645000D01*
D11*
X132334000Y-58674000D02*
X124714000Y-58674000D01*
X124714000Y-58674000D02*
X124714000Y-53594000D01*
X124714000Y-53594000D02*
X132334000Y-53594000D01*
X132334000Y-53594000D02*
X132334000Y-58674000D01*
X151130000Y-53594000D02*
X151130000Y-58674000D01*
X143510000Y-53594000D02*
X151130000Y-53594000D01*
X143510000Y-58674000D02*
X143510000Y-53594000D01*
X151130000Y-58674000D02*
X143510000Y-58674000D01*
X134366000Y-53594000D02*
X141986000Y-53594000D01*
X141986000Y-53594000D02*
X141986000Y-58674000D01*
X141986000Y-58674000D02*
X134366000Y-58674000D01*
X134366000Y-58674000D02*
X134366000Y-53594000D01*
X117475000Y-58801000D02*
X102235000Y-58801000D01*
X102235000Y-58801000D02*
X102235000Y-53721000D01*
X102235000Y-53721000D02*
X117475000Y-53721000D01*
X117475000Y-53721000D02*
X117475000Y-58801000D01*
D13*
X140479000Y-81541000D02*
X133079000Y-81541000D01*
X140479000Y-66167000D02*
X133079000Y-66167000D01*
X141605000Y-66929000D02*
G75*
G03X141605000Y-66929000I-254000J0D01*
G01*
D12*
X121301000Y-56469000D02*
X121901000Y-56469000D01*
X121301000Y-57069000D02*
X121901000Y-57069000D01*
X127489000Y-77643000D02*
X126889000Y-77643000D01*
X127489000Y-77043000D02*
X126889000Y-77043000D01*
X131618000Y-81518000D02*
X131618000Y-80918000D01*
X131018000Y-81518000D02*
X131018000Y-80918000D01*
X116729000Y-73960000D02*
X117329000Y-73960000D01*
X116729000Y-73360000D02*
X117329000Y-73360000D01*
X116732000Y-72309000D02*
X117332000Y-72309000D01*
X116732000Y-71709000D02*
X117332000Y-71709000D01*
X112060000Y-70758000D02*
X112060000Y-71358000D01*
X111460000Y-70758000D02*
X111460000Y-71358000D01*
X109809000Y-72725000D02*
X109809000Y-73325000D01*
X110409000Y-72725000D02*
X110409000Y-73325000D01*
X123363000Y-84374000D02*
X123363000Y-83774000D01*
X122763000Y-84374000D02*
X122763000Y-83774000D01*
X123363000Y-86822000D02*
X123363000Y-87422000D01*
X122763000Y-86822000D02*
X122763000Y-87422000D01*
X128886000Y-88981000D02*
X128286000Y-88981000D01*
X128886000Y-89581000D02*
X128286000Y-89581000D01*
X125557000Y-88981000D02*
X126157000Y-88981000D01*
X125557000Y-89581000D02*
X126157000Y-89581000D01*
X104132000Y-75286000D02*
X103752000Y-75286000D01*
X108792000Y-75286000D02*
X108211000Y-75286000D01*
X106432000Y-75286000D02*
X105912000Y-75286000D01*
X108792000Y-71546000D02*
X107412000Y-71546000D01*
X104932000Y-71546000D02*
X103752000Y-71546000D01*
X108792000Y-75286000D02*
X108792000Y-71546000D01*
X103752000Y-75286000D02*
X103752000Y-71546000D01*
D14*
X124654000Y-84893000D02*
X124654000Y-85293000D01*
X124654000Y-85293000D02*
X124954000Y-85593000D01*
X124954000Y-85593000D02*
X124954000Y-86393000D01*
X129554000Y-85793000D02*
X129854000Y-85793000D01*
X129854000Y-85793000D02*
X129854000Y-85493000D01*
X124954000Y-81593000D02*
X124654000Y-81593000D01*
X124654000Y-81593000D02*
X124654000Y-81893000D01*
X129554000Y-81593000D02*
X129854000Y-81593000D01*
X129854000Y-81593000D02*
X129854000Y-81893000D01*
X114943000Y-75996000D02*
X115268000Y-75996000D01*
X115268000Y-75996000D02*
X115268000Y-75696000D01*
X112293000Y-73996000D02*
X111968000Y-73996000D01*
X111968000Y-73996000D02*
X111968000Y-74296000D01*
X112268000Y-75996000D02*
X111968000Y-75996000D01*
X111968000Y-75996000D02*
X111968000Y-75671000D01*
X115268000Y-74321000D02*
X115043000Y-73996000D01*
X115043000Y-73996000D02*
X114943000Y-73996000D01*
X114943000Y-73996000D02*
X114943000Y-73471000D01*
X115268000Y-74321000D02*
X115268000Y-74696000D01*
X114126000Y-88078000D02*
X114376000Y-88078000D01*
X114376000Y-88078000D02*
X114751000Y-87753000D01*
X114751000Y-87753000D02*
X114751000Y-87453000D01*
X114751000Y-87453000D02*
X116201000Y-87453000D01*
X110801000Y-87628000D02*
X110801000Y-88078000D01*
X110801000Y-88078000D02*
X111176000Y-88078000D01*
X114401000Y-81128000D02*
X114751000Y-81128000D01*
X114751000Y-81128000D02*
X114751000Y-81478000D01*
X110801000Y-81453000D02*
X110801000Y-81128000D01*
X110801000Y-81128000D02*
X111101000Y-81128000D01*
D12*
X132810000Y-62758000D02*
G75*
G03X132810000Y-62758000I-3270000J0D01*
G01*
X126310000Y-62758000D02*
X132770000Y-62758000D01*
X126310000Y-62718000D02*
X132770000Y-62718000D01*
X126310000Y-62678000D02*
X132770000Y-62678000D01*
X126312000Y-62638000D02*
X132768000Y-62638000D01*
X126313000Y-62598000D02*
X132767000Y-62598000D01*
X126316000Y-62558000D02*
X132764000Y-62558000D01*
X126318000Y-62518000D02*
X128500000Y-62518000D01*
X130580000Y-62518000D02*
X132762000Y-62518000D01*
X126322000Y-62478000D02*
X128500000Y-62478000D01*
X130580000Y-62478000D02*
X132758000Y-62478000D01*
X126325000Y-62438000D02*
X128500000Y-62438000D01*
X130580000Y-62438000D02*
X132755000Y-62438000D01*
X126329000Y-62398000D02*
X128500000Y-62398000D01*
X130580000Y-62398000D02*
X132751000Y-62398000D01*
X126334000Y-62358000D02*
X128500000Y-62358000D01*
X130580000Y-62358000D02*
X132746000Y-62358000D01*
X126339000Y-62318000D02*
X128500000Y-62318000D01*
X130580000Y-62318000D02*
X132741000Y-62318000D01*
X126345000Y-62278000D02*
X128500000Y-62278000D01*
X130580000Y-62278000D02*
X132735000Y-62278000D01*
X126351000Y-62238000D02*
X128500000Y-62238000D01*
X130580000Y-62238000D02*
X132729000Y-62238000D01*
X126358000Y-62198000D02*
X128500000Y-62198000D01*
X130580000Y-62198000D02*
X132722000Y-62198000D01*
X126365000Y-62158000D02*
X128500000Y-62158000D01*
X130580000Y-62158000D02*
X132715000Y-62158000D01*
X126373000Y-62118000D02*
X128500000Y-62118000D01*
X130580000Y-62118000D02*
X132707000Y-62118000D01*
X126381000Y-62078000D02*
X128500000Y-62078000D01*
X130580000Y-62078000D02*
X132699000Y-62078000D01*
X126390000Y-62037000D02*
X128500000Y-62037000D01*
X130580000Y-62037000D02*
X132690000Y-62037000D01*
X126399000Y-61997000D02*
X128500000Y-61997000D01*
X130580000Y-61997000D02*
X132681000Y-61997000D01*
X126409000Y-61957000D02*
X128500000Y-61957000D01*
X130580000Y-61957000D02*
X132671000Y-61957000D01*
X126419000Y-61917000D02*
X128500000Y-61917000D01*
X130580000Y-61917000D02*
X132661000Y-61917000D01*
X126430000Y-61877000D02*
X128500000Y-61877000D01*
X130580000Y-61877000D02*
X132650000Y-61877000D01*
X126442000Y-61837000D02*
X128500000Y-61837000D01*
X130580000Y-61837000D02*
X132638000Y-61837000D01*
X126454000Y-61797000D02*
X128500000Y-61797000D01*
X130580000Y-61797000D02*
X132626000Y-61797000D01*
X126466000Y-61757000D02*
X128500000Y-61757000D01*
X130580000Y-61757000D02*
X132614000Y-61757000D01*
X126479000Y-61717000D02*
X128500000Y-61717000D01*
X130580000Y-61717000D02*
X132601000Y-61717000D01*
X126493000Y-61677000D02*
X128500000Y-61677000D01*
X130580000Y-61677000D02*
X132587000Y-61677000D01*
X126507000Y-61637000D02*
X128500000Y-61637000D01*
X130580000Y-61637000D02*
X132573000Y-61637000D01*
X126522000Y-61597000D02*
X128500000Y-61597000D01*
X130580000Y-61597000D02*
X132558000Y-61597000D01*
X126538000Y-61557000D02*
X128500000Y-61557000D01*
X130580000Y-61557000D02*
X132542000Y-61557000D01*
X126554000Y-61517000D02*
X128500000Y-61517000D01*
X130580000Y-61517000D02*
X132526000Y-61517000D01*
X126570000Y-61477000D02*
X128500000Y-61477000D01*
X130580000Y-61477000D02*
X132510000Y-61477000D01*
X126588000Y-61437000D02*
X128500000Y-61437000D01*
X130580000Y-61437000D02*
X132492000Y-61437000D01*
X126606000Y-61397000D02*
X128500000Y-61397000D01*
X130580000Y-61397000D02*
X132474000Y-61397000D01*
X126624000Y-61357000D02*
X128500000Y-61357000D01*
X130580000Y-61357000D02*
X132456000Y-61357000D01*
X126644000Y-61317000D02*
X128500000Y-61317000D01*
X130580000Y-61317000D02*
X132436000Y-61317000D01*
X126664000Y-61277000D02*
X128500000Y-61277000D01*
X130580000Y-61277000D02*
X132416000Y-61277000D01*
X126684000Y-61237000D02*
X128500000Y-61237000D01*
X130580000Y-61237000D02*
X132396000Y-61237000D01*
X126706000Y-61197000D02*
X128500000Y-61197000D01*
X130580000Y-61197000D02*
X132374000Y-61197000D01*
X126728000Y-61157000D02*
X128500000Y-61157000D01*
X130580000Y-61157000D02*
X132352000Y-61157000D01*
X126750000Y-61117000D02*
X128500000Y-61117000D01*
X130580000Y-61117000D02*
X132330000Y-61117000D01*
X126774000Y-61077000D02*
X128500000Y-61077000D01*
X130580000Y-61077000D02*
X132306000Y-61077000D01*
X126798000Y-61037000D02*
X128500000Y-61037000D01*
X130580000Y-61037000D02*
X132282000Y-61037000D01*
X126824000Y-60997000D02*
X128500000Y-60997000D01*
X130580000Y-60997000D02*
X132256000Y-60997000D01*
X126850000Y-60957000D02*
X128500000Y-60957000D01*
X130580000Y-60957000D02*
X132230000Y-60957000D01*
X126876000Y-60917000D02*
X128500000Y-60917000D01*
X130580000Y-60917000D02*
X132204000Y-60917000D01*
X126904000Y-60877000D02*
X128500000Y-60877000D01*
X130580000Y-60877000D02*
X132176000Y-60877000D01*
X126933000Y-60837000D02*
X128500000Y-60837000D01*
X130580000Y-60837000D02*
X132147000Y-60837000D01*
X126962000Y-60797000D02*
X128500000Y-60797000D01*
X130580000Y-60797000D02*
X132118000Y-60797000D01*
X126992000Y-60757000D02*
X128500000Y-60757000D01*
X130580000Y-60757000D02*
X132088000Y-60757000D01*
X127024000Y-60717000D02*
X128500000Y-60717000D01*
X130580000Y-60717000D02*
X132056000Y-60717000D01*
X127056000Y-60677000D02*
X128500000Y-60677000D01*
X130580000Y-60677000D02*
X132024000Y-60677000D01*
X127090000Y-60637000D02*
X128500000Y-60637000D01*
X130580000Y-60637000D02*
X131990000Y-60637000D01*
X127124000Y-60597000D02*
X128500000Y-60597000D01*
X130580000Y-60597000D02*
X131956000Y-60597000D01*
X127160000Y-60557000D02*
X128500000Y-60557000D01*
X130580000Y-60557000D02*
X131920000Y-60557000D01*
X127197000Y-60517000D02*
X128500000Y-60517000D01*
X130580000Y-60517000D02*
X131883000Y-60517000D01*
X127235000Y-60477000D02*
X128500000Y-60477000D01*
X130580000Y-60477000D02*
X131845000Y-60477000D01*
X127275000Y-60437000D02*
X131805000Y-60437000D01*
X127316000Y-60397000D02*
X131764000Y-60397000D01*
X127358000Y-60357000D02*
X131722000Y-60357000D01*
X127403000Y-60317000D02*
X131677000Y-60317000D01*
X127448000Y-60277000D02*
X131632000Y-60277000D01*
X127496000Y-60237000D02*
X131584000Y-60237000D01*
X127545000Y-60197000D02*
X131535000Y-60197000D01*
X127596000Y-60157000D02*
X131484000Y-60157000D01*
X127650000Y-60117000D02*
X131430000Y-60117000D01*
X127706000Y-60077000D02*
X131374000Y-60077000D01*
X127764000Y-60037000D02*
X131316000Y-60037000D01*
X127826000Y-59997000D02*
X131254000Y-59997000D01*
X127890000Y-59957000D02*
X131190000Y-59957000D01*
X127959000Y-59917000D02*
X131121000Y-59917000D01*
X128031000Y-59877000D02*
X131049000Y-59877000D01*
X128108000Y-59837000D02*
X130972000Y-59837000D01*
X128190000Y-59797000D02*
X130890000Y-59797000D01*
X128278000Y-59757000D02*
X130802000Y-59757000D01*
X128375000Y-59717000D02*
X130705000Y-59717000D01*
X128481000Y-59677000D02*
X130599000Y-59677000D01*
X128600000Y-59637000D02*
X130480000Y-59637000D01*
X128738000Y-59597000D02*
X130342000Y-59597000D01*
X128907000Y-59557000D02*
X130173000Y-59557000D01*
X129138000Y-59517000D02*
X129942000Y-59517000D01*
X127701000Y-66258241D02*
X127701000Y-65628241D01*
X127386000Y-65943241D02*
X128016000Y-65943241D01*
X126889000Y-79421000D02*
X127489000Y-79421000D01*
X126889000Y-78821000D02*
X127489000Y-78821000D01*
D11*
X107410380Y-80512190D02*
X108124666Y-80512190D01*
X108267523Y-80559809D01*
X108362761Y-80655047D01*
X108410380Y-80797904D01*
X108410380Y-80893142D01*
X107743714Y-79607428D02*
X108410380Y-79607428D01*
X107362761Y-79845523D02*
X108077047Y-80083619D01*
X108077047Y-79464571D01*
D10*
X131548142Y-92336857D02*
X131595761Y-92384476D01*
X131643380Y-92527333D01*
X131643380Y-92622571D01*
X131595761Y-92765428D01*
X131500523Y-92860666D01*
X131405285Y-92908285D01*
X131214809Y-92955904D01*
X131071952Y-92955904D01*
X130881476Y-92908285D01*
X130786238Y-92860666D01*
X130691000Y-92765428D01*
X130643380Y-92622571D01*
X130643380Y-92527333D01*
X130691000Y-92384476D01*
X130738619Y-92336857D01*
X131643380Y-91384476D02*
X131643380Y-91955904D01*
X131643380Y-91670190D02*
X130643380Y-91670190D01*
X130786238Y-91765428D01*
X130881476Y-91860666D01*
X130929095Y-91955904D01*
X131643380Y-90432095D02*
X131643380Y-91003523D01*
X131643380Y-90717809D02*
X130643380Y-90717809D01*
X130786238Y-90813047D01*
X130881476Y-90908285D01*
X130929095Y-91003523D01*
X136739333Y-92432142D02*
X136691714Y-92479761D01*
X136548857Y-92527380D01*
X136453619Y-92527380D01*
X136310761Y-92479761D01*
X136215523Y-92384523D01*
X136167904Y-92289285D01*
X136120285Y-92098809D01*
X136120285Y-91955952D01*
X136167904Y-91765476D01*
X136215523Y-91670238D01*
X136310761Y-91575000D01*
X136453619Y-91527380D01*
X136548857Y-91527380D01*
X136691714Y-91575000D01*
X136739333Y-91622619D01*
X137215523Y-92527380D02*
X137406000Y-92527380D01*
X137501238Y-92479761D01*
X137548857Y-92432142D01*
X137644095Y-92289285D01*
X137691714Y-92098809D01*
X137691714Y-91717857D01*
X137644095Y-91622619D01*
X137596476Y-91575000D01*
X137501238Y-91527380D01*
X137310761Y-91527380D01*
X137215523Y-91575000D01*
X137167904Y-91622619D01*
X137120285Y-91717857D01*
X137120285Y-91955952D01*
X137167904Y-92051190D01*
X137215523Y-92098809D01*
X137310761Y-92146428D01*
X137501238Y-92146428D01*
X137596476Y-92098809D01*
X137644095Y-92051190D01*
X137691714Y-91955952D01*
X121880333Y-67667142D02*
X121832714Y-67714761D01*
X121689857Y-67762380D01*
X121594619Y-67762380D01*
X121451761Y-67714761D01*
X121356523Y-67619523D01*
X121308904Y-67524285D01*
X121261285Y-67333809D01*
X121261285Y-67190952D01*
X121308904Y-67000476D01*
X121356523Y-66905238D01*
X121451761Y-66810000D01*
X121594619Y-66762380D01*
X121689857Y-66762380D01*
X121832714Y-66810000D01*
X121880333Y-66857619D01*
X122832714Y-67762380D02*
X122261285Y-67762380D01*
X122547000Y-67762380D02*
X122547000Y-66762380D01*
X122451761Y-66905238D01*
X122356523Y-67000476D01*
X122261285Y-67048095D01*
X119102142Y-69759666D02*
X119149761Y-69807285D01*
X119197380Y-69950142D01*
X119197380Y-70045380D01*
X119149761Y-70188238D01*
X119054523Y-70283476D01*
X118959285Y-70331095D01*
X118768809Y-70378714D01*
X118625952Y-70378714D01*
X118435476Y-70331095D01*
X118340238Y-70283476D01*
X118245000Y-70188238D01*
X118197380Y-70045380D01*
X118197380Y-69950142D01*
X118245000Y-69807285D01*
X118292619Y-69759666D01*
X118292619Y-69378714D02*
X118245000Y-69331095D01*
X118197380Y-69235857D01*
X118197380Y-68997761D01*
X118245000Y-68902523D01*
X118292619Y-68854904D01*
X118387857Y-68807285D01*
X118483095Y-68807285D01*
X118625952Y-68854904D01*
X119197380Y-69426333D01*
X119197380Y-68807285D01*
X114514333Y-68107142D02*
X114466714Y-68154761D01*
X114323857Y-68202380D01*
X114228619Y-68202380D01*
X114085761Y-68154761D01*
X113990523Y-68059523D01*
X113942904Y-67964285D01*
X113895285Y-67773809D01*
X113895285Y-67630952D01*
X113942904Y-67440476D01*
X113990523Y-67345238D01*
X114085761Y-67250000D01*
X114228619Y-67202380D01*
X114323857Y-67202380D01*
X114466714Y-67250000D01*
X114514333Y-67297619D01*
X114847666Y-67202380D02*
X115466714Y-67202380D01*
X115133380Y-67583333D01*
X115276238Y-67583333D01*
X115371476Y-67630952D01*
X115419095Y-67678571D01*
X115466714Y-67773809D01*
X115466714Y-68011904D01*
X115419095Y-68107142D01*
X115371476Y-68154761D01*
X115276238Y-68202380D01*
X114990523Y-68202380D01*
X114895285Y-68154761D01*
X114847666Y-68107142D01*
X110466142Y-78525666D02*
X110513761Y-78573285D01*
X110561380Y-78716142D01*
X110561380Y-78811380D01*
X110513761Y-78954238D01*
X110418523Y-79049476D01*
X110323285Y-79097095D01*
X110132809Y-79144714D01*
X109989952Y-79144714D01*
X109799476Y-79097095D01*
X109704238Y-79049476D01*
X109609000Y-78954238D01*
X109561380Y-78811380D01*
X109561380Y-78716142D01*
X109609000Y-78573285D01*
X109656619Y-78525666D01*
X109894714Y-77668523D02*
X110561380Y-77668523D01*
X109513761Y-77906619D02*
X110228047Y-78144714D01*
X110228047Y-77525666D01*
X120626142Y-86907666D02*
X120673761Y-86955285D01*
X120721380Y-87098142D01*
X120721380Y-87193380D01*
X120673761Y-87336238D01*
X120578523Y-87431476D01*
X120483285Y-87479095D01*
X120292809Y-87526714D01*
X120149952Y-87526714D01*
X119959476Y-87479095D01*
X119864238Y-87431476D01*
X119769000Y-87336238D01*
X119721380Y-87193380D01*
X119721380Y-87098142D01*
X119769000Y-86955285D01*
X119816619Y-86907666D01*
X119721380Y-86002904D02*
X119721380Y-86479095D01*
X120197571Y-86526714D01*
X120149952Y-86479095D01*
X120102333Y-86383857D01*
X120102333Y-86145761D01*
X120149952Y-86050523D01*
X120197571Y-86002904D01*
X120292809Y-85955285D01*
X120530904Y-85955285D01*
X120626142Y-86002904D01*
X120673761Y-86050523D01*
X120721380Y-86145761D01*
X120721380Y-86383857D01*
X120673761Y-86479095D01*
X120626142Y-86526714D01*
X120372142Y-82208666D02*
X120419761Y-82256285D01*
X120467380Y-82399142D01*
X120467380Y-82494380D01*
X120419761Y-82637238D01*
X120324523Y-82732476D01*
X120229285Y-82780095D01*
X120038809Y-82827714D01*
X119895952Y-82827714D01*
X119705476Y-82780095D01*
X119610238Y-82732476D01*
X119515000Y-82637238D01*
X119467380Y-82494380D01*
X119467380Y-82399142D01*
X119515000Y-82256285D01*
X119562619Y-82208666D01*
X119467380Y-81351523D02*
X119467380Y-81542000D01*
X119515000Y-81637238D01*
X119562619Y-81684857D01*
X119705476Y-81780095D01*
X119895952Y-81827714D01*
X120276904Y-81827714D01*
X120372142Y-81780095D01*
X120419761Y-81732476D01*
X120467380Y-81637238D01*
X120467380Y-81446761D01*
X120419761Y-81351523D01*
X120372142Y-81303904D01*
X120276904Y-81256285D01*
X120038809Y-81256285D01*
X119943571Y-81303904D01*
X119895952Y-81351523D01*
X119848333Y-81446761D01*
X119848333Y-81637238D01*
X119895952Y-81732476D01*
X119943571Y-81780095D01*
X120038809Y-81827714D01*
X116292333Y-78335142D02*
X116244714Y-78382761D01*
X116101857Y-78430380D01*
X116006619Y-78430380D01*
X115863761Y-78382761D01*
X115768523Y-78287523D01*
X115720904Y-78192285D01*
X115673285Y-78001809D01*
X115673285Y-77858952D01*
X115720904Y-77668476D01*
X115768523Y-77573238D01*
X115863761Y-77478000D01*
X116006619Y-77430380D01*
X116101857Y-77430380D01*
X116244714Y-77478000D01*
X116292333Y-77525619D01*
X116625666Y-77430380D02*
X117292333Y-77430380D01*
X116863761Y-78430380D01*
X121896142Y-81573666D02*
X121943761Y-81621285D01*
X121991380Y-81764142D01*
X121991380Y-81859380D01*
X121943761Y-82002238D01*
X121848523Y-82097476D01*
X121753285Y-82145095D01*
X121562809Y-82192714D01*
X121419952Y-82192714D01*
X121229476Y-82145095D01*
X121134238Y-82097476D01*
X121039000Y-82002238D01*
X120991380Y-81859380D01*
X120991380Y-81764142D01*
X121039000Y-81621285D01*
X121086619Y-81573666D01*
X121419952Y-81002238D02*
X121372333Y-81097476D01*
X121324714Y-81145095D01*
X121229476Y-81192714D01*
X121181857Y-81192714D01*
X121086619Y-81145095D01*
X121039000Y-81097476D01*
X120991380Y-81002238D01*
X120991380Y-80811761D01*
X121039000Y-80716523D01*
X121086619Y-80668904D01*
X121181857Y-80621285D01*
X121229476Y-80621285D01*
X121324714Y-80668904D01*
X121372333Y-80716523D01*
X121419952Y-80811761D01*
X121419952Y-81002238D01*
X121467571Y-81097476D01*
X121515190Y-81145095D01*
X121610428Y-81192714D01*
X121800904Y-81192714D01*
X121896142Y-81145095D01*
X121943761Y-81097476D01*
X121991380Y-81002238D01*
X121991380Y-80811761D01*
X121943761Y-80716523D01*
X121896142Y-80668904D01*
X121800904Y-80621285D01*
X121610428Y-80621285D01*
X121515190Y-80668904D01*
X121467571Y-80716523D01*
X121419952Y-80811761D01*
D11*
X123322809Y-57626380D02*
X123322809Y-58340666D01*
X123275190Y-58483523D01*
X123179952Y-58578761D01*
X123037095Y-58626380D01*
X122941857Y-58626380D01*
X124322809Y-58626380D02*
X123751380Y-58626380D01*
X124037095Y-58626380D02*
X124037095Y-57626380D01*
X123941857Y-57769238D01*
X123846619Y-57864476D01*
X123751380Y-57912095D01*
X147071809Y-59277380D02*
X147071809Y-59991666D01*
X147024190Y-60134523D01*
X146928952Y-60229761D01*
X146786095Y-60277380D01*
X146690857Y-60277380D01*
X147500380Y-59372619D02*
X147548000Y-59325000D01*
X147643238Y-59277380D01*
X147881333Y-59277380D01*
X147976571Y-59325000D01*
X148024190Y-59372619D01*
X148071809Y-59467857D01*
X148071809Y-59563095D01*
X148024190Y-59705952D01*
X147452761Y-60277380D01*
X148071809Y-60277380D01*
X138054809Y-59404380D02*
X138054809Y-60118666D01*
X138007190Y-60261523D01*
X137911952Y-60356761D01*
X137769095Y-60404380D01*
X137673857Y-60404380D01*
X138435761Y-59404380D02*
X139054809Y-59404380D01*
X138721476Y-59785333D01*
X138864333Y-59785333D01*
X138959571Y-59832952D01*
X139007190Y-59880571D01*
X139054809Y-59975809D01*
X139054809Y-60213904D01*
X139007190Y-60309142D01*
X138959571Y-60356761D01*
X138864333Y-60404380D01*
X138578619Y-60404380D01*
X138483380Y-60356761D01*
X138435761Y-60309142D01*
X108971809Y-59658380D02*
X108971809Y-60372666D01*
X108924190Y-60515523D01*
X108828952Y-60610761D01*
X108686095Y-60658380D01*
X108590857Y-60658380D01*
X109924190Y-59658380D02*
X109448000Y-59658380D01*
X109400380Y-60134571D01*
X109448000Y-60086952D01*
X109543238Y-60039333D01*
X109781333Y-60039333D01*
X109876571Y-60086952D01*
X109924190Y-60134571D01*
X109971809Y-60229809D01*
X109971809Y-60467904D01*
X109924190Y-60563142D01*
X109876571Y-60610761D01*
X109781333Y-60658380D01*
X109543238Y-60658380D01*
X109448000Y-60610761D01*
X109400380Y-60563142D01*
D10*
X141247904Y-82494380D02*
X141247904Y-81494380D01*
X141819333Y-82494380D02*
X141390761Y-81922952D01*
X141819333Y-81494380D02*
X141247904Y-82065809D01*
X142771714Y-82494380D02*
X142200285Y-82494380D01*
X142486000Y-82494380D02*
X142486000Y-81494380D01*
X142390761Y-81637238D01*
X142295523Y-81732476D01*
X142200285Y-81780095D01*
X121434333Y-55021380D02*
X121101000Y-54545190D01*
X120862904Y-55021380D02*
X120862904Y-54021380D01*
X121243857Y-54021380D01*
X121339095Y-54069000D01*
X121386714Y-54116619D01*
X121434333Y-54211857D01*
X121434333Y-54354714D01*
X121386714Y-54449952D01*
X121339095Y-54497571D01*
X121243857Y-54545190D01*
X120862904Y-54545190D01*
X122386714Y-55021380D02*
X121815285Y-55021380D01*
X122101000Y-55021380D02*
X122101000Y-54021380D01*
X122005761Y-54164238D01*
X121910523Y-54259476D01*
X121815285Y-54307095D01*
X129500333Y-77922380D02*
X129167000Y-77446190D01*
X128928904Y-77922380D02*
X128928904Y-76922380D01*
X129309857Y-76922380D01*
X129405095Y-76970000D01*
X129452714Y-77017619D01*
X129500333Y-77112857D01*
X129500333Y-77255714D01*
X129452714Y-77350952D01*
X129405095Y-77398571D01*
X129309857Y-77446190D01*
X128928904Y-77446190D01*
X129881285Y-77017619D02*
X129928904Y-76970000D01*
X130024142Y-76922380D01*
X130262238Y-76922380D01*
X130357476Y-76970000D01*
X130405095Y-77017619D01*
X130452714Y-77112857D01*
X130452714Y-77208095D01*
X130405095Y-77350952D01*
X129833666Y-77922380D01*
X130452714Y-77922380D01*
X131770380Y-83732666D02*
X131294190Y-84066000D01*
X131770380Y-84304095D02*
X130770380Y-84304095D01*
X130770380Y-83923142D01*
X130818000Y-83827904D01*
X130865619Y-83780285D01*
X130960857Y-83732666D01*
X131103714Y-83732666D01*
X131198952Y-83780285D01*
X131246571Y-83827904D01*
X131294190Y-83923142D01*
X131294190Y-84304095D01*
X130770380Y-83399333D02*
X130770380Y-82780285D01*
X131151333Y-83113619D01*
X131151333Y-82970761D01*
X131198952Y-82875523D01*
X131246571Y-82827904D01*
X131341809Y-82780285D01*
X131579904Y-82780285D01*
X131675142Y-82827904D01*
X131722761Y-82875523D01*
X131770380Y-82970761D01*
X131770380Y-83256476D01*
X131722761Y-83351714D01*
X131675142Y-83399333D01*
X119213333Y-74112380D02*
X118880000Y-73636190D01*
X118641904Y-74112380D02*
X118641904Y-73112380D01*
X119022857Y-73112380D01*
X119118095Y-73160000D01*
X119165714Y-73207619D01*
X119213333Y-73302857D01*
X119213333Y-73445714D01*
X119165714Y-73540952D01*
X119118095Y-73588571D01*
X119022857Y-73636190D01*
X118641904Y-73636190D01*
X120070476Y-73445714D02*
X120070476Y-74112380D01*
X119832380Y-73064761D02*
X119594285Y-73779047D01*
X120213333Y-73779047D01*
X119213333Y-72461380D02*
X118880000Y-71985190D01*
X118641904Y-72461380D02*
X118641904Y-71461380D01*
X119022857Y-71461380D01*
X119118095Y-71509000D01*
X119165714Y-71556619D01*
X119213333Y-71651857D01*
X119213333Y-71794714D01*
X119165714Y-71889952D01*
X119118095Y-71937571D01*
X119022857Y-71985190D01*
X118641904Y-71985190D01*
X120118095Y-71461380D02*
X119641904Y-71461380D01*
X119594285Y-71937571D01*
X119641904Y-71889952D01*
X119737142Y-71842333D01*
X119975238Y-71842333D01*
X120070476Y-71889952D01*
X120118095Y-71937571D01*
X120165714Y-72032809D01*
X120165714Y-72270904D01*
X120118095Y-72366142D01*
X120070476Y-72413761D01*
X119975238Y-72461380D01*
X119737142Y-72461380D01*
X119641904Y-72413761D01*
X119594285Y-72366142D01*
X111593333Y-69413380D02*
X111260000Y-68937190D01*
X111021904Y-69413380D02*
X111021904Y-68413380D01*
X111402857Y-68413380D01*
X111498095Y-68461000D01*
X111545714Y-68508619D01*
X111593333Y-68603857D01*
X111593333Y-68746714D01*
X111545714Y-68841952D01*
X111498095Y-68889571D01*
X111402857Y-68937190D01*
X111021904Y-68937190D01*
X112450476Y-68413380D02*
X112260000Y-68413380D01*
X112164761Y-68461000D01*
X112117142Y-68508619D01*
X112021904Y-68651476D01*
X111974285Y-68841952D01*
X111974285Y-69222904D01*
X112021904Y-69318142D01*
X112069523Y-69365761D01*
X112164761Y-69413380D01*
X112355238Y-69413380D01*
X112450476Y-69365761D01*
X112498095Y-69318142D01*
X112545714Y-69222904D01*
X112545714Y-68984809D01*
X112498095Y-68889571D01*
X112450476Y-68841952D01*
X112355238Y-68794333D01*
X112164761Y-68794333D01*
X112069523Y-68841952D01*
X112021904Y-68889571D01*
X111974285Y-68984809D01*
X110561380Y-70651666D02*
X110085190Y-70985000D01*
X110561380Y-71223095D02*
X109561380Y-71223095D01*
X109561380Y-70842142D01*
X109609000Y-70746904D01*
X109656619Y-70699285D01*
X109751857Y-70651666D01*
X109894714Y-70651666D01*
X109989952Y-70699285D01*
X110037571Y-70746904D01*
X110085190Y-70842142D01*
X110085190Y-71223095D01*
X109561380Y-70318333D02*
X109561380Y-69651666D01*
X110561380Y-70080238D01*
X121991380Y-84240666D02*
X121515190Y-84574000D01*
X121991380Y-84812095D02*
X120991380Y-84812095D01*
X120991380Y-84431142D01*
X121039000Y-84335904D01*
X121086619Y-84288285D01*
X121181857Y-84240666D01*
X121324714Y-84240666D01*
X121419952Y-84288285D01*
X121467571Y-84335904D01*
X121515190Y-84431142D01*
X121515190Y-84812095D01*
X121419952Y-83669238D02*
X121372333Y-83764476D01*
X121324714Y-83812095D01*
X121229476Y-83859714D01*
X121181857Y-83859714D01*
X121086619Y-83812095D01*
X121039000Y-83764476D01*
X120991380Y-83669238D01*
X120991380Y-83478761D01*
X121039000Y-83383523D01*
X121086619Y-83335904D01*
X121181857Y-83288285D01*
X121229476Y-83288285D01*
X121324714Y-83335904D01*
X121372333Y-83383523D01*
X121419952Y-83478761D01*
X121419952Y-83669238D01*
X121467571Y-83764476D01*
X121515190Y-83812095D01*
X121610428Y-83859714D01*
X121800904Y-83859714D01*
X121896142Y-83812095D01*
X121943761Y-83764476D01*
X121991380Y-83669238D01*
X121991380Y-83478761D01*
X121943761Y-83383523D01*
X121896142Y-83335904D01*
X121800904Y-83288285D01*
X121610428Y-83288285D01*
X121515190Y-83335904D01*
X121467571Y-83383523D01*
X121419952Y-83478761D01*
X123515380Y-89701666D02*
X123039190Y-90035000D01*
X123515380Y-90273095D02*
X122515380Y-90273095D01*
X122515380Y-89892142D01*
X122563000Y-89796904D01*
X122610619Y-89749285D01*
X122705857Y-89701666D01*
X122848714Y-89701666D01*
X122943952Y-89749285D01*
X122991571Y-89796904D01*
X123039190Y-89892142D01*
X123039190Y-90273095D01*
X123515380Y-89225476D02*
X123515380Y-89035000D01*
X123467761Y-88939761D01*
X123420142Y-88892142D01*
X123277285Y-88796904D01*
X123086809Y-88749285D01*
X122705857Y-88749285D01*
X122610619Y-88796904D01*
X122563000Y-88844523D01*
X122515380Y-88939761D01*
X122515380Y-89130238D01*
X122563000Y-89225476D01*
X122610619Y-89273095D01*
X122705857Y-89320714D01*
X122943952Y-89320714D01*
X123039190Y-89273095D01*
X123086809Y-89225476D01*
X123134428Y-89130238D01*
X123134428Y-88939761D01*
X123086809Y-88844523D01*
X123039190Y-88796904D01*
X122943952Y-88749285D01*
X128008142Y-91257380D02*
X127674809Y-90781190D01*
X127436714Y-91257380D02*
X127436714Y-90257380D01*
X127817666Y-90257380D01*
X127912904Y-90305000D01*
X127960523Y-90352619D01*
X128008142Y-90447857D01*
X128008142Y-90590714D01*
X127960523Y-90685952D01*
X127912904Y-90733571D01*
X127817666Y-90781190D01*
X127436714Y-90781190D01*
X128960523Y-91257380D02*
X128389095Y-91257380D01*
X128674809Y-91257380D02*
X128674809Y-90257380D01*
X128579571Y-90400238D01*
X128484333Y-90495476D01*
X128389095Y-90543095D01*
X129579571Y-90257380D02*
X129674809Y-90257380D01*
X129770047Y-90305000D01*
X129817666Y-90352619D01*
X129865285Y-90447857D01*
X129912904Y-90638333D01*
X129912904Y-90876428D01*
X129865285Y-91066904D01*
X129817666Y-91162142D01*
X129770047Y-91209761D01*
X129674809Y-91257380D01*
X129579571Y-91257380D01*
X129484333Y-91209761D01*
X129436714Y-91162142D01*
X129389095Y-91066904D01*
X129341476Y-90876428D01*
X129341476Y-90638333D01*
X129389095Y-90447857D01*
X129436714Y-90352619D01*
X129484333Y-90305000D01*
X129579571Y-90257380D01*
X125214142Y-91257380D02*
X124880809Y-90781190D01*
X124642714Y-91257380D02*
X124642714Y-90257380D01*
X125023666Y-90257380D01*
X125118904Y-90305000D01*
X125166523Y-90352619D01*
X125214142Y-90447857D01*
X125214142Y-90590714D01*
X125166523Y-90685952D01*
X125118904Y-90733571D01*
X125023666Y-90781190D01*
X124642714Y-90781190D01*
X126166523Y-91257380D02*
X125595095Y-91257380D01*
X125880809Y-91257380D02*
X125880809Y-90257380D01*
X125785571Y-90400238D01*
X125690333Y-90495476D01*
X125595095Y-90543095D01*
X127118904Y-91257380D02*
X126547476Y-91257380D01*
X126833190Y-91257380D02*
X126833190Y-90257380D01*
X126737952Y-90400238D01*
X126642714Y-90495476D01*
X126547476Y-90543095D01*
X103061380Y-73767238D02*
X102585190Y-74100571D01*
X103061380Y-74338666D02*
X102061380Y-74338666D01*
X102061380Y-73957714D01*
X102109000Y-73862476D01*
X102156619Y-73814857D01*
X102251857Y-73767238D01*
X102394714Y-73767238D01*
X102489952Y-73814857D01*
X102537571Y-73862476D01*
X102585190Y-73957714D01*
X102585190Y-74338666D01*
X102061380Y-73481523D02*
X103061380Y-73148190D01*
X102061380Y-72814857D01*
X103061380Y-71957714D02*
X103061380Y-72529142D01*
X103061380Y-72243428D02*
X102061380Y-72243428D01*
X102204238Y-72338666D01*
X102299476Y-72433904D01*
X102347095Y-72529142D01*
X124079095Y-78573380D02*
X124079095Y-79382904D01*
X124126714Y-79478142D01*
X124174333Y-79525761D01*
X124269571Y-79573380D01*
X124460047Y-79573380D01*
X124555285Y-79525761D01*
X124602904Y-79478142D01*
X124650523Y-79382904D01*
X124650523Y-78573380D01*
X125650523Y-79573380D02*
X125079095Y-79573380D01*
X125364809Y-79573380D02*
X125364809Y-78573380D01*
X125269571Y-78716238D01*
X125174333Y-78811476D01*
X125079095Y-78859095D01*
X111633095Y-77430380D02*
X111633095Y-78239904D01*
X111680714Y-78335142D01*
X111728333Y-78382761D01*
X111823571Y-78430380D01*
X112014047Y-78430380D01*
X112109285Y-78382761D01*
X112156904Y-78335142D01*
X112204523Y-78239904D01*
X112204523Y-77430380D01*
X112633095Y-77525619D02*
X112680714Y-77478000D01*
X112775952Y-77430380D01*
X113014047Y-77430380D01*
X113109285Y-77478000D01*
X113156904Y-77525619D01*
X113204523Y-77620857D01*
X113204523Y-77716095D01*
X113156904Y-77858952D01*
X112585476Y-78430380D01*
X113204523Y-78430380D01*
X109220095Y-88860380D02*
X109220095Y-89669904D01*
X109267714Y-89765142D01*
X109315333Y-89812761D01*
X109410571Y-89860380D01*
X109601047Y-89860380D01*
X109696285Y-89812761D01*
X109743904Y-89765142D01*
X109791523Y-89669904D01*
X109791523Y-88860380D01*
X110172476Y-88860380D02*
X110791523Y-88860380D01*
X110458190Y-89241333D01*
X110601047Y-89241333D01*
X110696285Y-89288952D01*
X110743904Y-89336571D01*
X110791523Y-89431809D01*
X110791523Y-89669904D01*
X110743904Y-89765142D01*
X110696285Y-89812761D01*
X110601047Y-89860380D01*
X110315333Y-89860380D01*
X110220095Y-89812761D01*
X110172476Y-89765142D01*
X128897142Y-67794142D02*
X128849523Y-67841761D01*
X128706666Y-67889380D01*
X128611428Y-67889380D01*
X128468571Y-67841761D01*
X128373333Y-67746523D01*
X128325714Y-67651285D01*
X128278095Y-67460809D01*
X128278095Y-67317952D01*
X128325714Y-67127476D01*
X128373333Y-67032238D01*
X128468571Y-66937000D01*
X128611428Y-66889380D01*
X128706666Y-66889380D01*
X128849523Y-66937000D01*
X128897142Y-66984619D01*
X129849523Y-67889380D02*
X129278095Y-67889380D01*
X129563809Y-67889380D02*
X129563809Y-66889380D01*
X129468571Y-67032238D01*
X129373333Y-67127476D01*
X129278095Y-67175095D01*
X130468571Y-66889380D02*
X130563809Y-66889380D01*
X130659047Y-66937000D01*
X130706666Y-66984619D01*
X130754285Y-67079857D01*
X130801904Y-67270333D01*
X130801904Y-67508428D01*
X130754285Y-67698904D01*
X130706666Y-67794142D01*
X130659047Y-67841761D01*
X130563809Y-67889380D01*
X130468571Y-67889380D01*
X130373333Y-67841761D01*
X130325714Y-67794142D01*
X130278095Y-67698904D01*
X130230476Y-67508428D01*
X130230476Y-67270333D01*
X130278095Y-67079857D01*
X130325714Y-66984619D01*
X130373333Y-66937000D01*
X130468571Y-66889380D01*
X129405142Y-79573380D02*
X129071809Y-79097190D01*
X128833714Y-79573380D02*
X128833714Y-78573380D01*
X129214666Y-78573380D01*
X129309904Y-78621000D01*
X129357523Y-78668619D01*
X129405142Y-78763857D01*
X129405142Y-78906714D01*
X129357523Y-79001952D01*
X129309904Y-79049571D01*
X129214666Y-79097190D01*
X128833714Y-79097190D01*
X130357523Y-79573380D02*
X129786095Y-79573380D01*
X130071809Y-79573380D02*
X130071809Y-78573380D01*
X129976571Y-78716238D01*
X129881333Y-78811476D01*
X129786095Y-78859095D01*
X130738476Y-78668619D02*
X130786095Y-78621000D01*
X130881333Y-78573380D01*
X131119428Y-78573380D01*
X131214666Y-78621000D01*
X131262285Y-78668619D01*
X131309904Y-78763857D01*
X131309904Y-78859095D01*
X131262285Y-79001952D01*
X130690857Y-79573380D01*
X131309904Y-79573380D01*
M02*
