G04 #@! TF.GenerationSoftware,KiCad,Pcbnew,(5.1.0)-1*
G04 #@! TF.CreationDate,2019-04-13T18:44:09-04:00*
G04 #@! TF.ProjectId,SCH1110 - IO Module PCB,53434831-3131-4302-902d-20494f204d6f,-*
G04 #@! TF.SameCoordinates,Original*
G04 #@! TF.FileFunction,Copper,L2,Bot*
G04 #@! TF.FilePolarity,Positive*
%FSLAX46Y46*%
G04 Gerber Fmt 4.6, Leading zero omitted, Abs format (unit mm)*
G04 Created by KiCad (PCBNEW (5.1.0)-1) date 2019-04-13 18:44:09*
%MOMM*%
%LPD*%
G04 APERTURE LIST*
%ADD10C,1.600000*%
%ADD11R,1.600000X1.600000*%
%ADD12C,1.905000*%
%ADD13C,0.762000*%
%ADD14C,0.254000*%
%ADD15C,0.381000*%
G04 APERTURE END LIST*
D10*
X137033000Y-86273000D03*
D11*
X137033000Y-88773000D03*
X121920000Y-61635000D03*
D10*
X121920000Y-64135000D03*
D12*
X139319000Y-67691000D03*
X139319000Y-72771000D03*
X139319000Y-75311000D03*
X139319000Y-77851000D03*
X134239000Y-77851000D03*
X134239000Y-72771000D03*
X134239000Y-75311000D03*
X134239000Y-67691000D03*
D11*
X129540000Y-64008000D03*
D10*
X129540000Y-61508000D03*
D13*
X109876000Y-81767000D03*
X117856000Y-75311000D03*
X113665000Y-75057000D03*
X131318000Y-85090000D03*
X123063000Y-79375000D03*
X105283000Y-80391000D03*
X115697000Y-78867000D03*
X118237000Y-78867000D03*
X120396000Y-84963000D03*
X121539000Y-86487000D03*
X128905000Y-71628000D03*
X127000000Y-71628000D03*
X118110000Y-65532000D03*
X116078000Y-65532000D03*
X116205000Y-67056000D03*
X118110000Y-67056000D03*
X126873000Y-72898000D03*
D14*
X115697000Y-78867000D02*
X118237000Y-78867000D01*
X120396000Y-84963000D02*
X120396000Y-85344000D01*
X120396000Y-85344000D02*
X121539000Y-86487000D01*
D15*
X128905000Y-71628000D02*
X127000000Y-71628000D01*
X118110000Y-65532000D02*
X116078000Y-65532000D01*
X118110000Y-67056000D02*
X116205000Y-67056000D01*
X130175000Y-72898000D02*
X128905000Y-72898000D01*
X132715000Y-70358000D02*
X130175000Y-72898000D01*
X139319000Y-75311000D02*
X134366000Y-70358000D01*
X134366000Y-70358000D02*
X132715000Y-70358000D01*
X128905000Y-72898000D02*
X126873000Y-72898000D01*
D14*
G36*
X161277301Y-100952300D02*
G01*
X102247700Y-100952300D01*
X102247700Y-95281488D01*
X104107520Y-95281488D01*
X104156582Y-95718882D01*
X104289666Y-96138418D01*
X104501704Y-96524114D01*
X104784619Y-96861279D01*
X105127635Y-97137071D01*
X105517687Y-97340985D01*
X105939918Y-97465254D01*
X106378244Y-97505145D01*
X106815971Y-97459138D01*
X107236425Y-97328986D01*
X107623592Y-97119646D01*
X107962724Y-96839091D01*
X108240904Y-96498009D01*
X108447536Y-96109390D01*
X108574750Y-95688037D01*
X108614612Y-95281488D01*
X154907520Y-95281488D01*
X154956582Y-95718882D01*
X155089666Y-96138418D01*
X155301704Y-96524114D01*
X155584619Y-96861279D01*
X155927635Y-97137071D01*
X156317687Y-97340985D01*
X156739918Y-97465254D01*
X157178244Y-97505145D01*
X157615971Y-97459138D01*
X158036425Y-97328986D01*
X158423592Y-97119646D01*
X158762724Y-96839091D01*
X159040904Y-96498009D01*
X159247536Y-96109390D01*
X159374750Y-95688037D01*
X159417700Y-95250000D01*
X159416821Y-95187031D01*
X159361657Y-94750364D01*
X159222728Y-94332728D01*
X159005325Y-93950030D01*
X158717730Y-93616848D01*
X158370897Y-93345872D01*
X157978036Y-93147423D01*
X157554111Y-93029062D01*
X157115271Y-92995295D01*
X156678229Y-93047409D01*
X156259633Y-93183419D01*
X155875427Y-93398144D01*
X155540245Y-93683406D01*
X155266854Y-94028340D01*
X155065668Y-94419806D01*
X154944350Y-94842893D01*
X154907520Y-95281488D01*
X108614612Y-95281488D01*
X108617700Y-95250000D01*
X108616821Y-95187031D01*
X108561657Y-94750364D01*
X108422728Y-94332728D01*
X108205325Y-93950030D01*
X107917730Y-93616848D01*
X107570897Y-93345872D01*
X107178036Y-93147423D01*
X106754111Y-93029062D01*
X106315271Y-92995295D01*
X105878229Y-93047409D01*
X105459633Y-93183419D01*
X105075427Y-93398144D01*
X104740245Y-93683406D01*
X104466854Y-94028340D01*
X104265668Y-94419806D01*
X104144350Y-94842893D01*
X104107520Y-95281488D01*
X102247700Y-95281488D01*
X102247700Y-87973000D01*
X135594928Y-87973000D01*
X135594928Y-89573000D01*
X135607188Y-89697482D01*
X135643498Y-89817180D01*
X135702463Y-89927494D01*
X135781815Y-90024185D01*
X135878506Y-90103537D01*
X135988820Y-90162502D01*
X136108518Y-90198812D01*
X136233000Y-90211072D01*
X137833000Y-90211072D01*
X137957482Y-90198812D01*
X138077180Y-90162502D01*
X138187494Y-90103537D01*
X138284185Y-90024185D01*
X138363537Y-89927494D01*
X138422502Y-89817180D01*
X138458812Y-89697482D01*
X138471072Y-89573000D01*
X138471072Y-87973000D01*
X138458812Y-87848518D01*
X138422502Y-87728820D01*
X138363537Y-87618506D01*
X138284185Y-87521815D01*
X138187494Y-87442463D01*
X138077180Y-87383498D01*
X137981057Y-87354339D01*
X138147637Y-87187759D01*
X138304680Y-86952727D01*
X138412853Y-86691574D01*
X138468000Y-86414335D01*
X138468000Y-86131665D01*
X138412853Y-85854426D01*
X138304680Y-85593273D01*
X138147637Y-85358241D01*
X137947759Y-85158363D01*
X137712727Y-85001320D01*
X137451574Y-84893147D01*
X137174335Y-84838000D01*
X136891665Y-84838000D01*
X136614426Y-84893147D01*
X136353273Y-85001320D01*
X136118241Y-85158363D01*
X135918363Y-85358241D01*
X135761320Y-85593273D01*
X135653147Y-85854426D01*
X135598000Y-86131665D01*
X135598000Y-86414335D01*
X135653147Y-86691574D01*
X135761320Y-86952727D01*
X135918363Y-87187759D01*
X136084943Y-87354339D01*
X135988820Y-87383498D01*
X135878506Y-87442463D01*
X135781815Y-87521815D01*
X135702463Y-87618506D01*
X135643498Y-87728820D01*
X135607188Y-87848518D01*
X135594928Y-87973000D01*
X102247700Y-87973000D01*
X102247700Y-84862933D01*
X119380000Y-84862933D01*
X119380000Y-85063067D01*
X119419044Y-85259356D01*
X119495632Y-85444256D01*
X119606821Y-85610662D01*
X119748338Y-85752179D01*
X119751164Y-85754067D01*
X119759355Y-85769392D01*
X119854578Y-85885422D01*
X119883652Y-85909282D01*
X120523000Y-86548631D01*
X120523000Y-86587067D01*
X120562044Y-86783356D01*
X120638632Y-86968256D01*
X120749821Y-87134662D01*
X120891338Y-87276179D01*
X121057744Y-87387368D01*
X121242644Y-87463956D01*
X121438933Y-87503000D01*
X121639067Y-87503000D01*
X121835356Y-87463956D01*
X122020256Y-87387368D01*
X122186662Y-87276179D01*
X122328179Y-87134662D01*
X122439368Y-86968256D01*
X122515956Y-86783356D01*
X122555000Y-86587067D01*
X122555000Y-86386933D01*
X122515956Y-86190644D01*
X122439368Y-86005744D01*
X122328179Y-85839338D01*
X122186662Y-85697821D01*
X122020256Y-85586632D01*
X121835356Y-85510044D01*
X121639067Y-85471000D01*
X121600631Y-85471000D01*
X121375616Y-85245985D01*
X121412000Y-85063067D01*
X121412000Y-84862933D01*
X121372956Y-84666644D01*
X121296368Y-84481744D01*
X121185179Y-84315338D01*
X121043662Y-84173821D01*
X120877256Y-84062632D01*
X120692356Y-83986044D01*
X120496067Y-83947000D01*
X120295933Y-83947000D01*
X120099644Y-83986044D01*
X119914744Y-84062632D01*
X119748338Y-84173821D01*
X119606821Y-84315338D01*
X119495632Y-84481744D01*
X119419044Y-84666644D01*
X119380000Y-84862933D01*
X102247700Y-84862933D01*
X102247700Y-78766933D01*
X114681000Y-78766933D01*
X114681000Y-78967067D01*
X114720044Y-79163356D01*
X114796632Y-79348256D01*
X114907821Y-79514662D01*
X115049338Y-79656179D01*
X115215744Y-79767368D01*
X115400644Y-79843956D01*
X115596933Y-79883000D01*
X115797067Y-79883000D01*
X115993356Y-79843956D01*
X116178256Y-79767368D01*
X116344662Y-79656179D01*
X116371841Y-79629000D01*
X117562159Y-79629000D01*
X117589338Y-79656179D01*
X117755744Y-79767368D01*
X117940644Y-79843956D01*
X118136933Y-79883000D01*
X118337067Y-79883000D01*
X118533356Y-79843956D01*
X118718256Y-79767368D01*
X118884662Y-79656179D01*
X119026179Y-79514662D01*
X119137368Y-79348256D01*
X119213956Y-79163356D01*
X119253000Y-78967067D01*
X119253000Y-78766933D01*
X119213956Y-78570644D01*
X119137368Y-78385744D01*
X119026179Y-78219338D01*
X118884662Y-78077821D01*
X118718256Y-77966632D01*
X118533356Y-77890044D01*
X118337067Y-77851000D01*
X118136933Y-77851000D01*
X117940644Y-77890044D01*
X117755744Y-77966632D01*
X117589338Y-78077821D01*
X117562159Y-78105000D01*
X116371841Y-78105000D01*
X116344662Y-78077821D01*
X116178256Y-77966632D01*
X115993356Y-77890044D01*
X115797067Y-77851000D01*
X115596933Y-77851000D01*
X115400644Y-77890044D01*
X115215744Y-77966632D01*
X115049338Y-78077821D01*
X114907821Y-78219338D01*
X114796632Y-78385744D01*
X114720044Y-78570644D01*
X114681000Y-78766933D01*
X102247700Y-78766933D01*
X102247700Y-72797933D01*
X125857000Y-72797933D01*
X125857000Y-72998067D01*
X125896044Y-73194356D01*
X125972632Y-73379256D01*
X126083821Y-73545662D01*
X126225338Y-73687179D01*
X126391744Y-73798368D01*
X126576644Y-73874956D01*
X126772933Y-73914000D01*
X126973067Y-73914000D01*
X127169356Y-73874956D01*
X127354256Y-73798368D01*
X127466304Y-73723500D01*
X130134450Y-73723500D01*
X130175000Y-73727494D01*
X130215550Y-73723500D01*
X130215553Y-73723500D01*
X130336826Y-73711556D01*
X130492434Y-73664353D01*
X130635842Y-73587699D01*
X130761541Y-73484541D01*
X130787398Y-73453034D01*
X133056933Y-71183500D01*
X134024068Y-71183500D01*
X134033786Y-71193219D01*
X133775943Y-71244507D01*
X133487037Y-71364176D01*
X133227028Y-71537908D01*
X133005908Y-71759028D01*
X132832176Y-72019037D01*
X132712507Y-72307943D01*
X132651500Y-72614645D01*
X132651500Y-72927355D01*
X132712507Y-73234057D01*
X132832176Y-73522963D01*
X133005908Y-73782972D01*
X133227028Y-74004092D01*
X133282265Y-74041000D01*
X133227028Y-74077908D01*
X133005908Y-74299028D01*
X132832176Y-74559037D01*
X132712507Y-74847943D01*
X132651500Y-75154645D01*
X132651500Y-75467355D01*
X132712507Y-75774057D01*
X132832176Y-76062963D01*
X133005908Y-76322972D01*
X133227028Y-76544092D01*
X133282265Y-76581000D01*
X133227028Y-76617908D01*
X133005908Y-76839028D01*
X132832176Y-77099037D01*
X132712507Y-77387943D01*
X132651500Y-77694645D01*
X132651500Y-78007355D01*
X132712507Y-78314057D01*
X132832176Y-78602963D01*
X133005908Y-78862972D01*
X133227028Y-79084092D01*
X133487037Y-79257824D01*
X133775943Y-79377493D01*
X134082645Y-79438500D01*
X134395355Y-79438500D01*
X134702057Y-79377493D01*
X134990963Y-79257824D01*
X135250972Y-79084092D01*
X135472092Y-78862972D01*
X135645824Y-78602963D01*
X135765493Y-78314057D01*
X135826500Y-78007355D01*
X135826500Y-77694645D01*
X135765493Y-77387943D01*
X135645824Y-77099037D01*
X135472092Y-76839028D01*
X135250972Y-76617908D01*
X135195735Y-76581000D01*
X135250972Y-76544092D01*
X135472092Y-76322972D01*
X135645824Y-76062963D01*
X135765493Y-75774057D01*
X135826500Y-75467355D01*
X135826500Y-75154645D01*
X135765493Y-74847943D01*
X135645824Y-74559037D01*
X135472092Y-74299028D01*
X135250972Y-74077908D01*
X135195735Y-74041000D01*
X135250972Y-74004092D01*
X135472092Y-73782972D01*
X135645824Y-73522963D01*
X135765493Y-73234057D01*
X135816781Y-72976214D01*
X137775253Y-74934686D01*
X137731500Y-75154645D01*
X137731500Y-75467355D01*
X137792507Y-75774057D01*
X137912176Y-76062963D01*
X138085908Y-76322972D01*
X138307028Y-76544092D01*
X138362265Y-76581000D01*
X138307028Y-76617908D01*
X138085908Y-76839028D01*
X137912176Y-77099037D01*
X137792507Y-77387943D01*
X137731500Y-77694645D01*
X137731500Y-78007355D01*
X137792507Y-78314057D01*
X137912176Y-78602963D01*
X138085908Y-78862972D01*
X138307028Y-79084092D01*
X138567037Y-79257824D01*
X138855943Y-79377493D01*
X139162645Y-79438500D01*
X139475355Y-79438500D01*
X139782057Y-79377493D01*
X140070963Y-79257824D01*
X140330972Y-79084092D01*
X140552092Y-78862972D01*
X140725824Y-78602963D01*
X140845493Y-78314057D01*
X140906500Y-78007355D01*
X140906500Y-77694645D01*
X140845493Y-77387943D01*
X140725824Y-77099037D01*
X140552092Y-76839028D01*
X140330972Y-76617908D01*
X140275735Y-76581000D01*
X140330972Y-76544092D01*
X140552092Y-76322972D01*
X140725824Y-76062963D01*
X140845493Y-75774057D01*
X140906500Y-75467355D01*
X140906500Y-75154645D01*
X140845493Y-74847943D01*
X140725824Y-74559037D01*
X140552092Y-74299028D01*
X140330972Y-74077908D01*
X140275735Y-74041000D01*
X140330972Y-74004092D01*
X140552092Y-73782972D01*
X140725824Y-73522963D01*
X140845493Y-73234057D01*
X140906500Y-72927355D01*
X140906500Y-72614645D01*
X140845493Y-72307943D01*
X140725824Y-72019037D01*
X140552092Y-71759028D01*
X140330972Y-71537908D01*
X140070963Y-71364176D01*
X139782057Y-71244507D01*
X139475355Y-71183500D01*
X139162645Y-71183500D01*
X138855943Y-71244507D01*
X138567037Y-71364176D01*
X138307028Y-71537908D01*
X138085908Y-71759028D01*
X137912176Y-72019037D01*
X137792507Y-72307943D01*
X137741219Y-72565786D01*
X134978398Y-69802966D01*
X134952541Y-69771459D01*
X134826842Y-69668301D01*
X134683434Y-69591647D01*
X134527826Y-69544444D01*
X134406553Y-69532500D01*
X134406550Y-69532500D01*
X134366000Y-69528506D01*
X134325450Y-69532500D01*
X132755542Y-69532500D01*
X132714999Y-69528507D01*
X132674456Y-69532500D01*
X132674447Y-69532500D01*
X132553174Y-69544444D01*
X132397566Y-69591647D01*
X132263417Y-69663352D01*
X132254156Y-69668302D01*
X132198033Y-69714361D01*
X132128459Y-69771459D01*
X132102606Y-69802961D01*
X129833068Y-72072500D01*
X129820593Y-72072500D01*
X129881956Y-71924356D01*
X129921000Y-71728067D01*
X129921000Y-71527933D01*
X129881956Y-71331644D01*
X129805368Y-71146744D01*
X129694179Y-70980338D01*
X129552662Y-70838821D01*
X129386256Y-70727632D01*
X129201356Y-70651044D01*
X129005067Y-70612000D01*
X128804933Y-70612000D01*
X128608644Y-70651044D01*
X128423744Y-70727632D01*
X128311696Y-70802500D01*
X127593304Y-70802500D01*
X127481256Y-70727632D01*
X127296356Y-70651044D01*
X127100067Y-70612000D01*
X126899933Y-70612000D01*
X126703644Y-70651044D01*
X126518744Y-70727632D01*
X126352338Y-70838821D01*
X126210821Y-70980338D01*
X126099632Y-71146744D01*
X126023044Y-71331644D01*
X125984000Y-71527933D01*
X125984000Y-71728067D01*
X126023044Y-71924356D01*
X126099632Y-72109256D01*
X126149809Y-72184350D01*
X126083821Y-72250338D01*
X125972632Y-72416744D01*
X125896044Y-72601644D01*
X125857000Y-72797933D01*
X102247700Y-72797933D01*
X102247700Y-65431933D01*
X115062000Y-65431933D01*
X115062000Y-65632067D01*
X115101044Y-65828356D01*
X115177632Y-66013256D01*
X115288821Y-66179662D01*
X115430338Y-66321179D01*
X115473884Y-66350275D01*
X115415821Y-66408338D01*
X115304632Y-66574744D01*
X115228044Y-66759644D01*
X115189000Y-66955933D01*
X115189000Y-67156067D01*
X115228044Y-67352356D01*
X115304632Y-67537256D01*
X115415821Y-67703662D01*
X115557338Y-67845179D01*
X115723744Y-67956368D01*
X115908644Y-68032956D01*
X116104933Y-68072000D01*
X116305067Y-68072000D01*
X116501356Y-68032956D01*
X116686256Y-67956368D01*
X116798304Y-67881500D01*
X117516696Y-67881500D01*
X117628744Y-67956368D01*
X117813644Y-68032956D01*
X118009933Y-68072000D01*
X118210067Y-68072000D01*
X118406356Y-68032956D01*
X118591256Y-67956368D01*
X118757662Y-67845179D01*
X118899179Y-67703662D01*
X119010368Y-67537256D01*
X119011449Y-67534645D01*
X132651500Y-67534645D01*
X132651500Y-67847355D01*
X132712507Y-68154057D01*
X132832176Y-68442963D01*
X133005908Y-68702972D01*
X133227028Y-68924092D01*
X133487037Y-69097824D01*
X133775943Y-69217493D01*
X134082645Y-69278500D01*
X134395355Y-69278500D01*
X134702057Y-69217493D01*
X134990963Y-69097824D01*
X135250972Y-68924092D01*
X135472092Y-68702972D01*
X135645824Y-68442963D01*
X135765493Y-68154057D01*
X135826500Y-67847355D01*
X135826500Y-67534645D01*
X137731500Y-67534645D01*
X137731500Y-67847355D01*
X137792507Y-68154057D01*
X137912176Y-68442963D01*
X138085908Y-68702972D01*
X138307028Y-68924092D01*
X138567037Y-69097824D01*
X138855943Y-69217493D01*
X139162645Y-69278500D01*
X139475355Y-69278500D01*
X139782057Y-69217493D01*
X140070963Y-69097824D01*
X140330972Y-68924092D01*
X140552092Y-68702972D01*
X140725824Y-68442963D01*
X140845493Y-68154057D01*
X140906500Y-67847355D01*
X140906500Y-67534645D01*
X140845493Y-67227943D01*
X140725824Y-66939037D01*
X140552092Y-66679028D01*
X140330972Y-66457908D01*
X140070963Y-66284176D01*
X139782057Y-66164507D01*
X139475355Y-66103500D01*
X139162645Y-66103500D01*
X138855943Y-66164507D01*
X138567037Y-66284176D01*
X138307028Y-66457908D01*
X138085908Y-66679028D01*
X137912176Y-66939037D01*
X137792507Y-67227943D01*
X137731500Y-67534645D01*
X135826500Y-67534645D01*
X135765493Y-67227943D01*
X135645824Y-66939037D01*
X135472092Y-66679028D01*
X135250972Y-66457908D01*
X134990963Y-66284176D01*
X134702057Y-66164507D01*
X134395355Y-66103500D01*
X134082645Y-66103500D01*
X133775943Y-66164507D01*
X133487037Y-66284176D01*
X133227028Y-66457908D01*
X133005908Y-66679028D01*
X132832176Y-66939037D01*
X132712507Y-67227943D01*
X132651500Y-67534645D01*
X119011449Y-67534645D01*
X119086956Y-67352356D01*
X119126000Y-67156067D01*
X119126000Y-66955933D01*
X119086956Y-66759644D01*
X119010368Y-66574744D01*
X118899179Y-66408338D01*
X118784841Y-66294000D01*
X118899179Y-66179662D01*
X119010368Y-66013256D01*
X119086956Y-65828356D01*
X119126000Y-65632067D01*
X119126000Y-65431933D01*
X119086956Y-65235644D01*
X119010368Y-65050744D01*
X118899179Y-64884338D01*
X118757662Y-64742821D01*
X118591256Y-64631632D01*
X118406356Y-64555044D01*
X118210067Y-64516000D01*
X118009933Y-64516000D01*
X117813644Y-64555044D01*
X117628744Y-64631632D01*
X117516696Y-64706500D01*
X116671304Y-64706500D01*
X116559256Y-64631632D01*
X116374356Y-64555044D01*
X116178067Y-64516000D01*
X115977933Y-64516000D01*
X115781644Y-64555044D01*
X115596744Y-64631632D01*
X115430338Y-64742821D01*
X115288821Y-64884338D01*
X115177632Y-65050744D01*
X115101044Y-65235644D01*
X115062000Y-65431933D01*
X102247700Y-65431933D01*
X102247700Y-60835000D01*
X120481928Y-60835000D01*
X120481928Y-62435000D01*
X120494188Y-62559482D01*
X120530498Y-62679180D01*
X120589463Y-62789494D01*
X120668815Y-62886185D01*
X120765506Y-62965537D01*
X120875820Y-63024502D01*
X120971943Y-63053661D01*
X120805363Y-63220241D01*
X120648320Y-63455273D01*
X120540147Y-63716426D01*
X120485000Y-63993665D01*
X120485000Y-64276335D01*
X120540147Y-64553574D01*
X120648320Y-64814727D01*
X120805363Y-65049759D01*
X121005241Y-65249637D01*
X121240273Y-65406680D01*
X121501426Y-65514853D01*
X121778665Y-65570000D01*
X122061335Y-65570000D01*
X122338574Y-65514853D01*
X122599727Y-65406680D01*
X122834759Y-65249637D01*
X123034637Y-65049759D01*
X123191680Y-64814727D01*
X123299853Y-64553574D01*
X123355000Y-64276335D01*
X123355000Y-63993665D01*
X123299853Y-63716426D01*
X123191680Y-63455273D01*
X123034637Y-63220241D01*
X123022396Y-63208000D01*
X128101928Y-63208000D01*
X128101928Y-64808000D01*
X128114188Y-64932482D01*
X128150498Y-65052180D01*
X128209463Y-65162494D01*
X128288815Y-65259185D01*
X128385506Y-65338537D01*
X128495820Y-65397502D01*
X128615518Y-65433812D01*
X128740000Y-65446072D01*
X130340000Y-65446072D01*
X130464482Y-65433812D01*
X130584180Y-65397502D01*
X130694494Y-65338537D01*
X130791185Y-65259185D01*
X130870537Y-65162494D01*
X130929502Y-65052180D01*
X130965812Y-64932482D01*
X130978072Y-64808000D01*
X130978072Y-63208000D01*
X130965812Y-63083518D01*
X130929502Y-62963820D01*
X130870537Y-62853506D01*
X130791185Y-62756815D01*
X130694494Y-62677463D01*
X130584180Y-62618498D01*
X130488057Y-62589339D01*
X130654637Y-62422759D01*
X130811680Y-62187727D01*
X130919853Y-61926574D01*
X130975000Y-61649335D01*
X130975000Y-61366665D01*
X130919853Y-61089426D01*
X130811680Y-60828273D01*
X130654637Y-60593241D01*
X130454759Y-60393363D01*
X130219727Y-60236320D01*
X129958574Y-60128147D01*
X129681335Y-60073000D01*
X129398665Y-60073000D01*
X129121426Y-60128147D01*
X128860273Y-60236320D01*
X128625241Y-60393363D01*
X128425363Y-60593241D01*
X128268320Y-60828273D01*
X128160147Y-61089426D01*
X128105000Y-61366665D01*
X128105000Y-61649335D01*
X128160147Y-61926574D01*
X128268320Y-62187727D01*
X128425363Y-62422759D01*
X128591943Y-62589339D01*
X128495820Y-62618498D01*
X128385506Y-62677463D01*
X128288815Y-62756815D01*
X128209463Y-62853506D01*
X128150498Y-62963820D01*
X128114188Y-63083518D01*
X128101928Y-63208000D01*
X123022396Y-63208000D01*
X122868057Y-63053661D01*
X122964180Y-63024502D01*
X123074494Y-62965537D01*
X123171185Y-62886185D01*
X123250537Y-62789494D01*
X123309502Y-62679180D01*
X123345812Y-62559482D01*
X123358072Y-62435000D01*
X123358072Y-60835000D01*
X123345812Y-60710518D01*
X123309502Y-60590820D01*
X123250537Y-60480506D01*
X123171185Y-60383815D01*
X123074494Y-60304463D01*
X122964180Y-60245498D01*
X122844482Y-60209188D01*
X122720000Y-60196928D01*
X121120000Y-60196928D01*
X120995518Y-60209188D01*
X120875820Y-60245498D01*
X120765506Y-60304463D01*
X120668815Y-60383815D01*
X120589463Y-60480506D01*
X120530498Y-60590820D01*
X120494188Y-60710518D01*
X120481928Y-60835000D01*
X102247700Y-60835000D01*
X102247700Y-51447700D01*
X161277300Y-51447700D01*
X161277301Y-100952300D01*
X161277301Y-100952300D01*
G37*
X161277301Y-100952300D02*
X102247700Y-100952300D01*
X102247700Y-95281488D01*
X104107520Y-95281488D01*
X104156582Y-95718882D01*
X104289666Y-96138418D01*
X104501704Y-96524114D01*
X104784619Y-96861279D01*
X105127635Y-97137071D01*
X105517687Y-97340985D01*
X105939918Y-97465254D01*
X106378244Y-97505145D01*
X106815971Y-97459138D01*
X107236425Y-97328986D01*
X107623592Y-97119646D01*
X107962724Y-96839091D01*
X108240904Y-96498009D01*
X108447536Y-96109390D01*
X108574750Y-95688037D01*
X108614612Y-95281488D01*
X154907520Y-95281488D01*
X154956582Y-95718882D01*
X155089666Y-96138418D01*
X155301704Y-96524114D01*
X155584619Y-96861279D01*
X155927635Y-97137071D01*
X156317687Y-97340985D01*
X156739918Y-97465254D01*
X157178244Y-97505145D01*
X157615971Y-97459138D01*
X158036425Y-97328986D01*
X158423592Y-97119646D01*
X158762724Y-96839091D01*
X159040904Y-96498009D01*
X159247536Y-96109390D01*
X159374750Y-95688037D01*
X159417700Y-95250000D01*
X159416821Y-95187031D01*
X159361657Y-94750364D01*
X159222728Y-94332728D01*
X159005325Y-93950030D01*
X158717730Y-93616848D01*
X158370897Y-93345872D01*
X157978036Y-93147423D01*
X157554111Y-93029062D01*
X157115271Y-92995295D01*
X156678229Y-93047409D01*
X156259633Y-93183419D01*
X155875427Y-93398144D01*
X155540245Y-93683406D01*
X155266854Y-94028340D01*
X155065668Y-94419806D01*
X154944350Y-94842893D01*
X154907520Y-95281488D01*
X108614612Y-95281488D01*
X108617700Y-95250000D01*
X108616821Y-95187031D01*
X108561657Y-94750364D01*
X108422728Y-94332728D01*
X108205325Y-93950030D01*
X107917730Y-93616848D01*
X107570897Y-93345872D01*
X107178036Y-93147423D01*
X106754111Y-93029062D01*
X106315271Y-92995295D01*
X105878229Y-93047409D01*
X105459633Y-93183419D01*
X105075427Y-93398144D01*
X104740245Y-93683406D01*
X104466854Y-94028340D01*
X104265668Y-94419806D01*
X104144350Y-94842893D01*
X104107520Y-95281488D01*
X102247700Y-95281488D01*
X102247700Y-87973000D01*
X135594928Y-87973000D01*
X135594928Y-89573000D01*
X135607188Y-89697482D01*
X135643498Y-89817180D01*
X135702463Y-89927494D01*
X135781815Y-90024185D01*
X135878506Y-90103537D01*
X135988820Y-90162502D01*
X136108518Y-90198812D01*
X136233000Y-90211072D01*
X137833000Y-90211072D01*
X137957482Y-90198812D01*
X138077180Y-90162502D01*
X138187494Y-90103537D01*
X138284185Y-90024185D01*
X138363537Y-89927494D01*
X138422502Y-89817180D01*
X138458812Y-89697482D01*
X138471072Y-89573000D01*
X138471072Y-87973000D01*
X138458812Y-87848518D01*
X138422502Y-87728820D01*
X138363537Y-87618506D01*
X138284185Y-87521815D01*
X138187494Y-87442463D01*
X138077180Y-87383498D01*
X137981057Y-87354339D01*
X138147637Y-87187759D01*
X138304680Y-86952727D01*
X138412853Y-86691574D01*
X138468000Y-86414335D01*
X138468000Y-86131665D01*
X138412853Y-85854426D01*
X138304680Y-85593273D01*
X138147637Y-85358241D01*
X137947759Y-85158363D01*
X137712727Y-85001320D01*
X137451574Y-84893147D01*
X137174335Y-84838000D01*
X136891665Y-84838000D01*
X136614426Y-84893147D01*
X136353273Y-85001320D01*
X136118241Y-85158363D01*
X135918363Y-85358241D01*
X135761320Y-85593273D01*
X135653147Y-85854426D01*
X135598000Y-86131665D01*
X135598000Y-86414335D01*
X135653147Y-86691574D01*
X135761320Y-86952727D01*
X135918363Y-87187759D01*
X136084943Y-87354339D01*
X135988820Y-87383498D01*
X135878506Y-87442463D01*
X135781815Y-87521815D01*
X135702463Y-87618506D01*
X135643498Y-87728820D01*
X135607188Y-87848518D01*
X135594928Y-87973000D01*
X102247700Y-87973000D01*
X102247700Y-84862933D01*
X119380000Y-84862933D01*
X119380000Y-85063067D01*
X119419044Y-85259356D01*
X119495632Y-85444256D01*
X119606821Y-85610662D01*
X119748338Y-85752179D01*
X119751164Y-85754067D01*
X119759355Y-85769392D01*
X119854578Y-85885422D01*
X119883652Y-85909282D01*
X120523000Y-86548631D01*
X120523000Y-86587067D01*
X120562044Y-86783356D01*
X120638632Y-86968256D01*
X120749821Y-87134662D01*
X120891338Y-87276179D01*
X121057744Y-87387368D01*
X121242644Y-87463956D01*
X121438933Y-87503000D01*
X121639067Y-87503000D01*
X121835356Y-87463956D01*
X122020256Y-87387368D01*
X122186662Y-87276179D01*
X122328179Y-87134662D01*
X122439368Y-86968256D01*
X122515956Y-86783356D01*
X122555000Y-86587067D01*
X122555000Y-86386933D01*
X122515956Y-86190644D01*
X122439368Y-86005744D01*
X122328179Y-85839338D01*
X122186662Y-85697821D01*
X122020256Y-85586632D01*
X121835356Y-85510044D01*
X121639067Y-85471000D01*
X121600631Y-85471000D01*
X121375616Y-85245985D01*
X121412000Y-85063067D01*
X121412000Y-84862933D01*
X121372956Y-84666644D01*
X121296368Y-84481744D01*
X121185179Y-84315338D01*
X121043662Y-84173821D01*
X120877256Y-84062632D01*
X120692356Y-83986044D01*
X120496067Y-83947000D01*
X120295933Y-83947000D01*
X120099644Y-83986044D01*
X119914744Y-84062632D01*
X119748338Y-84173821D01*
X119606821Y-84315338D01*
X119495632Y-84481744D01*
X119419044Y-84666644D01*
X119380000Y-84862933D01*
X102247700Y-84862933D01*
X102247700Y-78766933D01*
X114681000Y-78766933D01*
X114681000Y-78967067D01*
X114720044Y-79163356D01*
X114796632Y-79348256D01*
X114907821Y-79514662D01*
X115049338Y-79656179D01*
X115215744Y-79767368D01*
X115400644Y-79843956D01*
X115596933Y-79883000D01*
X115797067Y-79883000D01*
X115993356Y-79843956D01*
X116178256Y-79767368D01*
X116344662Y-79656179D01*
X116371841Y-79629000D01*
X117562159Y-79629000D01*
X117589338Y-79656179D01*
X117755744Y-79767368D01*
X117940644Y-79843956D01*
X118136933Y-79883000D01*
X118337067Y-79883000D01*
X118533356Y-79843956D01*
X118718256Y-79767368D01*
X118884662Y-79656179D01*
X119026179Y-79514662D01*
X119137368Y-79348256D01*
X119213956Y-79163356D01*
X119253000Y-78967067D01*
X119253000Y-78766933D01*
X119213956Y-78570644D01*
X119137368Y-78385744D01*
X119026179Y-78219338D01*
X118884662Y-78077821D01*
X118718256Y-77966632D01*
X118533356Y-77890044D01*
X118337067Y-77851000D01*
X118136933Y-77851000D01*
X117940644Y-77890044D01*
X117755744Y-77966632D01*
X117589338Y-78077821D01*
X117562159Y-78105000D01*
X116371841Y-78105000D01*
X116344662Y-78077821D01*
X116178256Y-77966632D01*
X115993356Y-77890044D01*
X115797067Y-77851000D01*
X115596933Y-77851000D01*
X115400644Y-77890044D01*
X115215744Y-77966632D01*
X115049338Y-78077821D01*
X114907821Y-78219338D01*
X114796632Y-78385744D01*
X114720044Y-78570644D01*
X114681000Y-78766933D01*
X102247700Y-78766933D01*
X102247700Y-72797933D01*
X125857000Y-72797933D01*
X125857000Y-72998067D01*
X125896044Y-73194356D01*
X125972632Y-73379256D01*
X126083821Y-73545662D01*
X126225338Y-73687179D01*
X126391744Y-73798368D01*
X126576644Y-73874956D01*
X126772933Y-73914000D01*
X126973067Y-73914000D01*
X127169356Y-73874956D01*
X127354256Y-73798368D01*
X127466304Y-73723500D01*
X130134450Y-73723500D01*
X130175000Y-73727494D01*
X130215550Y-73723500D01*
X130215553Y-73723500D01*
X130336826Y-73711556D01*
X130492434Y-73664353D01*
X130635842Y-73587699D01*
X130761541Y-73484541D01*
X130787398Y-73453034D01*
X133056933Y-71183500D01*
X134024068Y-71183500D01*
X134033786Y-71193219D01*
X133775943Y-71244507D01*
X133487037Y-71364176D01*
X133227028Y-71537908D01*
X133005908Y-71759028D01*
X132832176Y-72019037D01*
X132712507Y-72307943D01*
X132651500Y-72614645D01*
X132651500Y-72927355D01*
X132712507Y-73234057D01*
X132832176Y-73522963D01*
X133005908Y-73782972D01*
X133227028Y-74004092D01*
X133282265Y-74041000D01*
X133227028Y-74077908D01*
X133005908Y-74299028D01*
X132832176Y-74559037D01*
X132712507Y-74847943D01*
X132651500Y-75154645D01*
X132651500Y-75467355D01*
X132712507Y-75774057D01*
X132832176Y-76062963D01*
X133005908Y-76322972D01*
X133227028Y-76544092D01*
X133282265Y-76581000D01*
X133227028Y-76617908D01*
X133005908Y-76839028D01*
X132832176Y-77099037D01*
X132712507Y-77387943D01*
X132651500Y-77694645D01*
X132651500Y-78007355D01*
X132712507Y-78314057D01*
X132832176Y-78602963D01*
X133005908Y-78862972D01*
X133227028Y-79084092D01*
X133487037Y-79257824D01*
X133775943Y-79377493D01*
X134082645Y-79438500D01*
X134395355Y-79438500D01*
X134702057Y-79377493D01*
X134990963Y-79257824D01*
X135250972Y-79084092D01*
X135472092Y-78862972D01*
X135645824Y-78602963D01*
X135765493Y-78314057D01*
X135826500Y-78007355D01*
X135826500Y-77694645D01*
X135765493Y-77387943D01*
X135645824Y-77099037D01*
X135472092Y-76839028D01*
X135250972Y-76617908D01*
X135195735Y-76581000D01*
X135250972Y-76544092D01*
X135472092Y-76322972D01*
X135645824Y-76062963D01*
X135765493Y-75774057D01*
X135826500Y-75467355D01*
X135826500Y-75154645D01*
X135765493Y-74847943D01*
X135645824Y-74559037D01*
X135472092Y-74299028D01*
X135250972Y-74077908D01*
X135195735Y-74041000D01*
X135250972Y-74004092D01*
X135472092Y-73782972D01*
X135645824Y-73522963D01*
X135765493Y-73234057D01*
X135816781Y-72976214D01*
X137775253Y-74934686D01*
X137731500Y-75154645D01*
X137731500Y-75467355D01*
X137792507Y-75774057D01*
X137912176Y-76062963D01*
X138085908Y-76322972D01*
X138307028Y-76544092D01*
X138362265Y-76581000D01*
X138307028Y-76617908D01*
X138085908Y-76839028D01*
X137912176Y-77099037D01*
X137792507Y-77387943D01*
X137731500Y-77694645D01*
X137731500Y-78007355D01*
X137792507Y-78314057D01*
X137912176Y-78602963D01*
X138085908Y-78862972D01*
X138307028Y-79084092D01*
X138567037Y-79257824D01*
X138855943Y-79377493D01*
X139162645Y-79438500D01*
X139475355Y-79438500D01*
X139782057Y-79377493D01*
X140070963Y-79257824D01*
X140330972Y-79084092D01*
X140552092Y-78862972D01*
X140725824Y-78602963D01*
X140845493Y-78314057D01*
X140906500Y-78007355D01*
X140906500Y-77694645D01*
X140845493Y-77387943D01*
X140725824Y-77099037D01*
X140552092Y-76839028D01*
X140330972Y-76617908D01*
X140275735Y-76581000D01*
X140330972Y-76544092D01*
X140552092Y-76322972D01*
X140725824Y-76062963D01*
X140845493Y-75774057D01*
X140906500Y-75467355D01*
X140906500Y-75154645D01*
X140845493Y-74847943D01*
X140725824Y-74559037D01*
X140552092Y-74299028D01*
X140330972Y-74077908D01*
X140275735Y-74041000D01*
X140330972Y-74004092D01*
X140552092Y-73782972D01*
X140725824Y-73522963D01*
X140845493Y-73234057D01*
X140906500Y-72927355D01*
X140906500Y-72614645D01*
X140845493Y-72307943D01*
X140725824Y-72019037D01*
X140552092Y-71759028D01*
X140330972Y-71537908D01*
X140070963Y-71364176D01*
X139782057Y-71244507D01*
X139475355Y-71183500D01*
X139162645Y-71183500D01*
X138855943Y-71244507D01*
X138567037Y-71364176D01*
X138307028Y-71537908D01*
X138085908Y-71759028D01*
X137912176Y-72019037D01*
X137792507Y-72307943D01*
X137741219Y-72565786D01*
X134978398Y-69802966D01*
X134952541Y-69771459D01*
X134826842Y-69668301D01*
X134683434Y-69591647D01*
X134527826Y-69544444D01*
X134406553Y-69532500D01*
X134406550Y-69532500D01*
X134366000Y-69528506D01*
X134325450Y-69532500D01*
X132755542Y-69532500D01*
X132714999Y-69528507D01*
X132674456Y-69532500D01*
X132674447Y-69532500D01*
X132553174Y-69544444D01*
X132397566Y-69591647D01*
X132263417Y-69663352D01*
X132254156Y-69668302D01*
X132198033Y-69714361D01*
X132128459Y-69771459D01*
X132102606Y-69802961D01*
X129833068Y-72072500D01*
X129820593Y-72072500D01*
X129881956Y-71924356D01*
X129921000Y-71728067D01*
X129921000Y-71527933D01*
X129881956Y-71331644D01*
X129805368Y-71146744D01*
X129694179Y-70980338D01*
X129552662Y-70838821D01*
X129386256Y-70727632D01*
X129201356Y-70651044D01*
X129005067Y-70612000D01*
X128804933Y-70612000D01*
X128608644Y-70651044D01*
X128423744Y-70727632D01*
X128311696Y-70802500D01*
X127593304Y-70802500D01*
X127481256Y-70727632D01*
X127296356Y-70651044D01*
X127100067Y-70612000D01*
X126899933Y-70612000D01*
X126703644Y-70651044D01*
X126518744Y-70727632D01*
X126352338Y-70838821D01*
X126210821Y-70980338D01*
X126099632Y-71146744D01*
X126023044Y-71331644D01*
X125984000Y-71527933D01*
X125984000Y-71728067D01*
X126023044Y-71924356D01*
X126099632Y-72109256D01*
X126149809Y-72184350D01*
X126083821Y-72250338D01*
X125972632Y-72416744D01*
X125896044Y-72601644D01*
X125857000Y-72797933D01*
X102247700Y-72797933D01*
X102247700Y-65431933D01*
X115062000Y-65431933D01*
X115062000Y-65632067D01*
X115101044Y-65828356D01*
X115177632Y-66013256D01*
X115288821Y-66179662D01*
X115430338Y-66321179D01*
X115473884Y-66350275D01*
X115415821Y-66408338D01*
X115304632Y-66574744D01*
X115228044Y-66759644D01*
X115189000Y-66955933D01*
X115189000Y-67156067D01*
X115228044Y-67352356D01*
X115304632Y-67537256D01*
X115415821Y-67703662D01*
X115557338Y-67845179D01*
X115723744Y-67956368D01*
X115908644Y-68032956D01*
X116104933Y-68072000D01*
X116305067Y-68072000D01*
X116501356Y-68032956D01*
X116686256Y-67956368D01*
X116798304Y-67881500D01*
X117516696Y-67881500D01*
X117628744Y-67956368D01*
X117813644Y-68032956D01*
X118009933Y-68072000D01*
X118210067Y-68072000D01*
X118406356Y-68032956D01*
X118591256Y-67956368D01*
X118757662Y-67845179D01*
X118899179Y-67703662D01*
X119010368Y-67537256D01*
X119011449Y-67534645D01*
X132651500Y-67534645D01*
X132651500Y-67847355D01*
X132712507Y-68154057D01*
X132832176Y-68442963D01*
X133005908Y-68702972D01*
X133227028Y-68924092D01*
X133487037Y-69097824D01*
X133775943Y-69217493D01*
X134082645Y-69278500D01*
X134395355Y-69278500D01*
X134702057Y-69217493D01*
X134990963Y-69097824D01*
X135250972Y-68924092D01*
X135472092Y-68702972D01*
X135645824Y-68442963D01*
X135765493Y-68154057D01*
X135826500Y-67847355D01*
X135826500Y-67534645D01*
X137731500Y-67534645D01*
X137731500Y-67847355D01*
X137792507Y-68154057D01*
X137912176Y-68442963D01*
X138085908Y-68702972D01*
X138307028Y-68924092D01*
X138567037Y-69097824D01*
X138855943Y-69217493D01*
X139162645Y-69278500D01*
X139475355Y-69278500D01*
X139782057Y-69217493D01*
X140070963Y-69097824D01*
X140330972Y-68924092D01*
X140552092Y-68702972D01*
X140725824Y-68442963D01*
X140845493Y-68154057D01*
X140906500Y-67847355D01*
X140906500Y-67534645D01*
X140845493Y-67227943D01*
X140725824Y-66939037D01*
X140552092Y-66679028D01*
X140330972Y-66457908D01*
X140070963Y-66284176D01*
X139782057Y-66164507D01*
X139475355Y-66103500D01*
X139162645Y-66103500D01*
X138855943Y-66164507D01*
X138567037Y-66284176D01*
X138307028Y-66457908D01*
X138085908Y-66679028D01*
X137912176Y-66939037D01*
X137792507Y-67227943D01*
X137731500Y-67534645D01*
X135826500Y-67534645D01*
X135765493Y-67227943D01*
X135645824Y-66939037D01*
X135472092Y-66679028D01*
X135250972Y-66457908D01*
X134990963Y-66284176D01*
X134702057Y-66164507D01*
X134395355Y-66103500D01*
X134082645Y-66103500D01*
X133775943Y-66164507D01*
X133487037Y-66284176D01*
X133227028Y-66457908D01*
X133005908Y-66679028D01*
X132832176Y-66939037D01*
X132712507Y-67227943D01*
X132651500Y-67534645D01*
X119011449Y-67534645D01*
X119086956Y-67352356D01*
X119126000Y-67156067D01*
X119126000Y-66955933D01*
X119086956Y-66759644D01*
X119010368Y-66574744D01*
X118899179Y-66408338D01*
X118784841Y-66294000D01*
X118899179Y-66179662D01*
X119010368Y-66013256D01*
X119086956Y-65828356D01*
X119126000Y-65632067D01*
X119126000Y-65431933D01*
X119086956Y-65235644D01*
X119010368Y-65050744D01*
X118899179Y-64884338D01*
X118757662Y-64742821D01*
X118591256Y-64631632D01*
X118406356Y-64555044D01*
X118210067Y-64516000D01*
X118009933Y-64516000D01*
X117813644Y-64555044D01*
X117628744Y-64631632D01*
X117516696Y-64706500D01*
X116671304Y-64706500D01*
X116559256Y-64631632D01*
X116374356Y-64555044D01*
X116178067Y-64516000D01*
X115977933Y-64516000D01*
X115781644Y-64555044D01*
X115596744Y-64631632D01*
X115430338Y-64742821D01*
X115288821Y-64884338D01*
X115177632Y-65050744D01*
X115101044Y-65235644D01*
X115062000Y-65431933D01*
X102247700Y-65431933D01*
X102247700Y-60835000D01*
X120481928Y-60835000D01*
X120481928Y-62435000D01*
X120494188Y-62559482D01*
X120530498Y-62679180D01*
X120589463Y-62789494D01*
X120668815Y-62886185D01*
X120765506Y-62965537D01*
X120875820Y-63024502D01*
X120971943Y-63053661D01*
X120805363Y-63220241D01*
X120648320Y-63455273D01*
X120540147Y-63716426D01*
X120485000Y-63993665D01*
X120485000Y-64276335D01*
X120540147Y-64553574D01*
X120648320Y-64814727D01*
X120805363Y-65049759D01*
X121005241Y-65249637D01*
X121240273Y-65406680D01*
X121501426Y-65514853D01*
X121778665Y-65570000D01*
X122061335Y-65570000D01*
X122338574Y-65514853D01*
X122599727Y-65406680D01*
X122834759Y-65249637D01*
X123034637Y-65049759D01*
X123191680Y-64814727D01*
X123299853Y-64553574D01*
X123355000Y-64276335D01*
X123355000Y-63993665D01*
X123299853Y-63716426D01*
X123191680Y-63455273D01*
X123034637Y-63220241D01*
X123022396Y-63208000D01*
X128101928Y-63208000D01*
X128101928Y-64808000D01*
X128114188Y-64932482D01*
X128150498Y-65052180D01*
X128209463Y-65162494D01*
X128288815Y-65259185D01*
X128385506Y-65338537D01*
X128495820Y-65397502D01*
X128615518Y-65433812D01*
X128740000Y-65446072D01*
X130340000Y-65446072D01*
X130464482Y-65433812D01*
X130584180Y-65397502D01*
X130694494Y-65338537D01*
X130791185Y-65259185D01*
X130870537Y-65162494D01*
X130929502Y-65052180D01*
X130965812Y-64932482D01*
X130978072Y-64808000D01*
X130978072Y-63208000D01*
X130965812Y-63083518D01*
X130929502Y-62963820D01*
X130870537Y-62853506D01*
X130791185Y-62756815D01*
X130694494Y-62677463D01*
X130584180Y-62618498D01*
X130488057Y-62589339D01*
X130654637Y-62422759D01*
X130811680Y-62187727D01*
X130919853Y-61926574D01*
X130975000Y-61649335D01*
X130975000Y-61366665D01*
X130919853Y-61089426D01*
X130811680Y-60828273D01*
X130654637Y-60593241D01*
X130454759Y-60393363D01*
X130219727Y-60236320D01*
X129958574Y-60128147D01*
X129681335Y-60073000D01*
X129398665Y-60073000D01*
X129121426Y-60128147D01*
X128860273Y-60236320D01*
X128625241Y-60393363D01*
X128425363Y-60593241D01*
X128268320Y-60828273D01*
X128160147Y-61089426D01*
X128105000Y-61366665D01*
X128105000Y-61649335D01*
X128160147Y-61926574D01*
X128268320Y-62187727D01*
X128425363Y-62422759D01*
X128591943Y-62589339D01*
X128495820Y-62618498D01*
X128385506Y-62677463D01*
X128288815Y-62756815D01*
X128209463Y-62853506D01*
X128150498Y-62963820D01*
X128114188Y-63083518D01*
X128101928Y-63208000D01*
X123022396Y-63208000D01*
X122868057Y-63053661D01*
X122964180Y-63024502D01*
X123074494Y-62965537D01*
X123171185Y-62886185D01*
X123250537Y-62789494D01*
X123309502Y-62679180D01*
X123345812Y-62559482D01*
X123358072Y-62435000D01*
X123358072Y-60835000D01*
X123345812Y-60710518D01*
X123309502Y-60590820D01*
X123250537Y-60480506D01*
X123171185Y-60383815D01*
X123074494Y-60304463D01*
X122964180Y-60245498D01*
X122844482Y-60209188D01*
X122720000Y-60196928D01*
X121120000Y-60196928D01*
X120995518Y-60209188D01*
X120875820Y-60245498D01*
X120765506Y-60304463D01*
X120668815Y-60383815D01*
X120589463Y-60480506D01*
X120530498Y-60590820D01*
X120494188Y-60710518D01*
X120481928Y-60835000D01*
X102247700Y-60835000D01*
X102247700Y-51447700D01*
X161277300Y-51447700D01*
X161277301Y-100952300D01*
M02*
