M48
; DRILL file {KiCad (5.1.0)-1} date 6/2/2019 9:39:06 AM
; FORMAT={-:-/ absolute / inch / decimal}
; #@! TF.CreationDate,2019-06-02T09:39:06-04:00
; #@! TF.GenerationSoftware,Kicad,Pcbnew,(5.1.0)-1
FMAT,2
INCH
T1C0.0150
T2C0.0315
T3C0.0420
%
G90
G05
T1
X4.145Y-3.165
X4.3258Y-3.2192
X4.475Y-2.955
X4.555Y-3.105
X4.57Y-2.58
X4.575Y-2.64
X4.65Y-2.58
X4.65Y-2.64
X4.65Y-2.955
X4.655Y-3.105
X4.74Y-3.345
X4.785Y-3.405
X4.845Y-3.125
X4.925Y-2.775
X4.925Y-2.87
X4.995Y-2.775
X4.995Y-2.87
X5.17Y-3.35
X5.31Y-2.775
X5.375Y-2.84
T2
X5.1Y-2.4216
X5.1Y-2.52
X4.8Y-2.4266
X4.8Y-2.525
X5.395Y-3.3966
X5.395Y-3.495
T3
X5.285Y-2.665
X5.285Y-2.865
X5.285Y-2.965
X5.285Y-3.065
X5.485Y-2.665
X5.485Y-2.865
X5.485Y-2.965
X5.485Y-3.065
T0
M30
